<svg width="28" height="24" viewBox="0 0 28 24" fill="none" xmlns="http://www.w3.org/2000/svg">
<path d="M23.5 0C24.6935 0 25.8381 0.474106 26.682 1.31802C27.5259 2.16193 28 3.30653 28 4.5V19.5C28 20.6935 27.5259 21.8381 26.682 22.682C25.8381 23.5259 24.6935 24 23.5 24H4.5C3.30653 24 2.16193 23.5259 1.31802 22.682C0.474106 21.8381 0 20.6935 0 19.5V4.5C0 3.30653 0.474106 2.16193 1.31802 1.31802C2.16193 0.474106 3.30653 0 4.5 0H23.5ZM10.865 7.57C10.6182 7.47314 10.3431 7.47825 10.1 7.5842C9.85701 7.69015 9.666 7.88827 9.569 8.135L7.5 13.402L5.43 8.135C5.32554 7.8994 5.13416 7.71322 4.89577 7.6153C4.65737 7.51738 4.39038 7.51528 4.15048 7.60944C3.91057 7.70359 3.71628 7.88673 3.60813 8.12066C3.49998 8.35459 3.48632 8.62124 3.57 8.865L6.228 15.633C6.32837 15.8887 6.50346 16.1083 6.73045 16.263C6.95743 16.4178 7.22578 16.5006 7.5005 16.5006C7.77522 16.5006 8.04357 16.4178 8.27055 16.263C8.49754 16.1083 8.67263 15.8887 8.773 15.633L11.431 8.865C11.5278 8.61808 11.5226 8.34283 11.4164 8.09978C11.3103 7.85673 11.1119 7.66681 10.865 7.57ZM14 7.5C13.7348 7.5 13.4804 7.60536 13.2929 7.79289C13.1054 7.98043 13 8.23478 13 8.5V15.5C13 15.7652 13.1054 16.0196 13.2929 16.2071C13.4804 16.3946 13.7348 16.5 14 16.5C14.2652 16.5 14.5196 16.3946 14.7071 16.2071C14.8946 16.0196 15 15.7652 15 15.5V8.5C15 8.23478 14.8946 7.98043 14.7071 7.79289C14.5196 7.60536 14.2652 7.5 14 7.5ZM18 7.5C17.7348 7.5 17.4804 7.60536 17.2929 7.79289C17.1054 7.98043 17 8.23478 17 8.5V15.5C17 15.7652 17.1054 16.0196 17.2929 16.2071C17.4804 16.3946 17.7348 16.5 18 16.5C18.2652 16.5 18.5196 16.3946 18.7071 16.2071C18.8946 16.0196 19 15.7652 19 15.5V14H20.75C21.612 14 22.4386 13.6576 23.0481 13.0481C23.6576 12.4386 24 11.612 24 10.75C24 9.88805 23.6576 9.0614 23.0481 8.4519C22.4386 7.84241 21.612 7.5 20.75 7.5H18ZM20.75 9.5C21.0815 9.5 21.3995 9.6317 21.6339 9.86612C21.8683 10.1005 22 10.4185 22 10.75C22 11.0815 21.8683 11.3995 21.6339 11.6339C21.3995 11.8683 21.0815 12 20.75 12H19V9.5H20.75Z" fill="#FFC32A"/>
</svg>
