<svg width="939" height="273" viewBox="0 0 939 273" fill="none" xmlns="http://www.w3.org/2000/svg">
<path d="M620.16 57.84C629.87 56.66 629.87 43.89 620.22 42.27C619.907 42.2167 619.75 42.0333 619.75 41.72V36.51C619.75 36.15 619.927 35.93 620.28 35.85C630.19 33.73 629.72 20.86 620.1 19.93C619.867 19.91 619.75 19.78 619.75 19.54V13.77C619.75 13.57 619.85 13.46 620.05 13.44C626.72 12.91 629.7 5.51001 625.62 0.320007C625.598 0.290293 625.584 0.254949 625.581 0.217957C625.577 0.180964 625.585 0.143771 625.601 0.11055C625.618 0.0773288 625.643 0.0494036 625.675 0.0298767C625.706 0.0103498 625.743 0 625.78 0H938C938.066 0 938.13 0.0263428 938.177 0.0732269C938.224 0.120111 938.25 0.183696 938.25 0.25V112.23C938.25 112.537 938.097 112.693 937.79 112.7C928.89 112.89 920.96 117.91 916.96 125.73C908.88 141.51 920.38 159.86 937.79 160.29C938.097 160.297 938.25 160.453 938.25 160.76V272.75C938.25 272.816 938.224 272.88 938.177 272.927C938.13 272.974 938.066 273 938 273H628C627.673 273 627.47 272.843 627.39 272.53C626.43 268.81 624.03 266.637 620.19 266.01C619.897 265.957 619.75 265.78 619.75 265.48V260.25C619.75 259.863 619.937 259.637 620.31 259.57C630.01 257.69 629.87 245.19 620.31 243.62C619.937 243.56 619.75 243.343 619.75 242.97V237.79C619.75 237.423 619.93 237.21 620.29 237.15C629.87 235.46 629.86 223.32 620.26 221.6C619.92 221.54 619.75 221.34 619.75 221V215.26C619.75 214.933 619.91 214.75 620.23 214.71C629.98 213.44 629.74 200.31 620.19 199.23C619.89 199.19 619.74 199.02 619.74 198.72L619.75 193.28C619.75 192.98 619.9 192.8 620.2 192.74C629.99 190.93 630.01 178.25 620.23 176.79C619.91 176.743 619.75 176.56 619.75 176.24V170.8C619.75 170.54 619.873 170.39 620.12 170.35C629.94 168.59 630 155.95 620.32 154.39C619.947 154.33 619.76 154.113 619.76 153.74L619.74 148.05C619.74 147.777 619.877 147.613 620.15 147.56C629.99 145.72 630.01 133.1 620.24 131.56C619.913 131.507 619.75 131.313 619.75 130.98V125.69C619.75 125.35 619.917 125.153 620.25 125.1C625.07 124.34 628.33 120.39 627.27 115.51C626.557 112.197 624.1 109.993 619.9 108.9C619.793 108.873 619.74 108.807 619.74 108.7L619.75 103.26C619.757 102.953 619.913 102.77 620.22 102.71C629.82 100.96 629.93 88.71 620.31 87.15C619.937 87.0833 619.75 86.8633 619.75 86.49V80.78C619.75 80.5067 619.887 80.3467 620.16 80.3C629.95 78.64 629.91 66.11 620.18 64.72C619.893 64.68 619.75 64.51 619.75 64.21V58.3C619.75 58.0267 619.887 57.8733 620.16 57.84ZM839.71 151.48C839.81 160.893 839.81 170.293 839.71 179.68C839.65 185.487 839.183 189.403 838.31 191.43C834.21 200.92 818.02 199.19 814.33 190.26C813.45 188.12 813.01 183.887 813.01 177.56C813.003 150.113 813 122.663 813 95.21C812.993 89.05 813.513 84.8167 814.56 82.51C816.993 77.13 821.973 74.7767 829.5 75.45C835.98 76.03 839.68 81.86 839.71 87.5C839.757 94.7667 839.767 102.01 839.74 109.23C839.74 109.302 839.768 109.37 839.819 109.421C839.87 109.472 839.938 109.5 840.01 109.5H865.99C866.059 109.5 866.125 109.473 866.174 109.424C866.223 109.375 866.25 109.309 866.25 109.24C866.26 101.2 866.79 92.44 865.85 84.61C863.73 67.09 853.16 54.92 835.68 51.88C808.63 47.17 786.76 60.38 786.64 89.51C786.513 119.837 786.473 150.167 786.52 180.5C786.56 201.17 795.24 218.35 817.51 221.41C839.64 224.45 860.15 216.39 865.08 192.41C865.853 188.63 866.24 185.91 866.24 184.25C866.253 165.143 866.257 146.063 866.25 127.01C866.25 126.941 866.223 126.875 866.174 126.826C866.125 126.777 866.059 126.75 865.99 126.75L830 126.74C829.667 126.74 829.5 126.91 829.5 127.25V150.5C829.5 150.833 829.667 151 830 151H839.22C839.54 151 839.703 151.16 839.71 151.48ZM718.25 123.49V53.5C718.25 53.1667 718.083 53 717.75 53H692C691.833 53 691.75 53.0833 691.75 53.25V219.5C691.75 219.833 691.917 220 692.25 220H717.73C718.07 220 718.24 219.83 718.24 219.49C718.26 203.337 718.263 187.173 718.25 171C718.243 169.513 718.58 168.12 719.26 166.82C721.42 162.667 723.61 158.56 725.83 154.5C725.859 154.449 725.902 154.406 725.953 154.378C726.005 154.35 726.064 154.338 726.123 154.342C726.182 154.346 726.238 154.367 726.285 154.402C726.332 154.437 726.369 154.485 726.39 154.54L751.38 219.72C751.412 219.803 751.469 219.873 751.542 219.923C751.615 219.973 751.701 220 751.79 220H778.49C778.516 220.001 778.543 219.995 778.566 219.982C778.589 219.97 778.609 219.952 778.624 219.929C778.639 219.906 778.648 219.88 778.651 219.852C778.654 219.824 778.65 219.796 778.64 219.77L742.48 127.94C742.42 127.782 742.393 127.614 742.4 127.448C742.406 127.281 742.447 127.118 742.52 126.97L778.51 53.47C778.663 53.1567 778.567 53 778.22 53L752.5 52.99C752.293 52.99 752.147 53.0833 752.06 53.27L718.85 123.62C718.818 123.684 718.764 123.736 718.699 123.767C718.634 123.799 718.56 123.808 718.491 123.792C718.421 123.777 718.359 123.739 718.315 123.684C718.272 123.629 718.249 123.561 718.25 123.49Z" fill="black"/>
<path d="M839.22 151H830C829.667 151 829.5 150.833 829.5 150.5V127.25C829.5 126.91 829.667 126.74 830 126.74L865.99 126.75C866.059 126.75 866.125 126.777 866.174 126.826C866.223 126.875 866.25 126.941 866.25 127.01C866.257 146.063 866.253 165.143 866.24 184.25C866.24 185.91 865.853 188.63 865.08 192.41C860.15 216.39 839.64 224.45 817.51 221.41C795.24 218.35 786.56 201.17 786.52 180.5C786.473 150.167 786.513 119.837 786.64 89.5101C786.76 60.3801 808.63 47.1701 835.68 51.8801C853.16 54.9201 863.73 67.0901 865.85 84.6101C866.79 92.4401 866.26 101.2 866.25 109.24C866.25 109.309 866.223 109.375 866.174 109.424C866.125 109.473 866.059 109.5 865.99 109.5H840.01C839.938 109.5 839.87 109.472 839.819 109.421C839.768 109.37 839.74 109.302 839.74 109.23C839.767 102.01 839.757 94.7667 839.71 87.5001C839.68 81.8601 835.98 76.0301 829.5 75.4501C821.973 74.7767 816.993 77.1301 814.56 82.5101C813.513 84.8167 812.993 89.0501 813 95.2101C813 122.663 813.003 150.113 813.01 177.56C813.01 183.887 813.45 188.12 814.33 190.26C818.02 199.19 834.21 200.92 838.31 191.43C839.183 189.403 839.65 185.487 839.71 179.68C839.81 170.293 839.81 160.893 839.71 151.48C839.703 151.16 839.54 151 839.22 151Z" fill="#FFC32A"/>
<path d="M718.25 123.49C718.249 123.561 718.272 123.629 718.315 123.684C718.359 123.739 718.421 123.777 718.491 123.792C718.56 123.808 718.634 123.799 718.699 123.767C718.764 123.736 718.818 123.684 718.85 123.62L752.06 53.27C752.147 53.0833 752.293 52.99 752.5 52.99L778.22 53C778.567 53 778.663 53.1567 778.51 53.47L742.52 126.97C742.447 127.118 742.406 127.281 742.4 127.448C742.393 127.614 742.42 127.782 742.48 127.94L778.64 219.77C778.65 219.796 778.654 219.824 778.651 219.852C778.648 219.88 778.639 219.906 778.624 219.929C778.609 219.952 778.589 219.97 778.566 219.982C778.543 219.995 778.516 220.001 778.49 220H751.79C751.701 220 751.615 219.973 751.542 219.923C751.469 219.873 751.412 219.803 751.38 219.72L726.39 154.54C726.369 154.485 726.332 154.437 726.285 154.402C726.238 154.367 726.182 154.346 726.123 154.342C726.064 154.338 726.005 154.35 725.953 154.378C725.902 154.406 725.859 154.449 725.83 154.5C723.61 158.56 721.42 162.667 719.26 166.82C718.58 168.12 718.243 169.513 718.25 171C718.263 187.173 718.26 203.337 718.24 219.49C718.24 219.83 718.07 220 717.73 220H692.25C691.917 220 691.75 219.833 691.75 219.5V53.25C691.75 53.0833 691.833 53 692 53H717.75C718.083 53 718.25 53.1667 718.25 53.5V123.49Z" fill="#FFC32A"/>
<path d="M609.49 29.4855C609.49 29.4823 609.49 29.4792 609.49 29.476M609.49 29.4855C609.49 29.4904 609.49 29.4952 609.49 29.5V29.4901L609.49 29.476M609.49 29.4855L609.49 29.4802V29.476M609.49 29.4855L609.49 29.476M609.5 230.818C609.5 230.814 609.5 230.809 609.5 230.805M609.5 230.818C609.5 230.822 609.5 230.826 609.5 230.83V230.821L609.5 230.805M609.5 230.818L609.5 230.812V230.805M609.5 230.818L609.5 230.805M611.349 2.02002L610.835 3.50258L611.349 2.02002ZM5.25 5H607.498C603.684 7.402 601.644 11.5256 601.649 15.7314C601.653 20.2143 603.98 24.6878 608.306 27.1102C607.45 27.5645 606.609 28.1061 605.833 28.7646C603.524 30.7229 602.142 33.3879 601.814 36.7317L601.813 36.7373C601.26 42.4384 604.208 46.8841 608.465 49.1895C599.5 53.6671 599.617 66.7868 608.148 71.5612C603.983 73.952 601.638 78.1801 601.613 82.6484C601.587 87.1531 603.924 91.4329 608.126 93.8429C606.774 94.5843 605.594 95.5531 604.619 96.715C602.534 99.2005 601.62 102.289 601.678 105.241C601.766 109.602 604.044 114.102 608.323 116.461C599.565 121.032 599.527 134.435 608.623 138.896C604.185 141.211 601.691 145.554 601.738 150.178C601.783 154.716 604.277 158.963 608.614 161.226C604.358 163.429 602.006 167.657 601.858 171.957C601.699 176.589 604.141 181.381 608.97 183.516C608.168 183.945 607.464 184.433 606.883 184.868C602.104 188.446 600.693 193.837 602.424 198.605C603.563 201.744 605.96 204.336 609.053 205.856C608.781 205.981 608.505 206.121 608.233 206.278C602.778 209.416 600.739 214.936 602.166 220.058C603.107 223.436 605.468 226.329 608.692 228.057C603.342 230.861 600.99 236.192 601.901 241.325C602.579 245.144 605.006 248.535 608.643 250.463C604.084 252.781 601.654 257.351 601.696 261.972C601.716 264.064 602.241 266.141 603.237 268H5.25V164.833C20.9367 162.141 29.1323 149.424 29.185 136.72C29.2378 123.976 21.1159 111.131 5.25 108.156V5ZM609.5 68.77V68.7792V68.77ZM614 114.948L613.954 114.951C613.97 114.95 613.985 114.948 614 114.948ZM609.5 158.3V158.308V158.3ZM609.5 202.77V202.778V202.77ZM613.299 207.168C613.296 207.167 613.294 207.167 613.291 207.167C613.293 207.167 613.297 207.167 613.299 207.168ZM614.06 135.29C604.15 134.26 604.48 120.58 614.28 119.94L614.06 135.29Z" fill="#FFC32A" stroke="black" stroke-width="10"/>
<path d="M294.84 196.223C298.55 194.293 300.25 189.303 300.65 185.263C301.94 172.353 295.69 161.633 286.65 152.933C280.957 147.459 275.213 142.039 269.42 136.673C253.83 122.223 246.06 101.943 250.57 80.8527C255.48 57.8927 275.32 47.8526 298.24 51.8926C321.69 56.0226 328.09 77.0727 326.93 98.1627C326.917 98.4493 326.767 98.5926 326.48 98.5926H302.49C302.412 98.5928 302.334 98.5769 302.262 98.5458C302.19 98.5147 302.126 98.469 302.072 98.4118C302.019 98.3546 301.978 98.2869 301.951 98.2131C301.925 98.1392 301.915 98.0608 301.92 97.9827C302.31 91.7027 302.51 82.6827 297.81 78.3527C291.63 72.6727 279.74 74.5026 277.03 83.0926C272.67 96.9226 280.59 111.153 290.54 120.313C298.79 127.923 307.62 135.423 314.67 144.173C326.26 158.583 330.01 176.963 325.57 194.913C321.903 209.739 312.707 218.529 297.98 221.283C292.287 222.343 286.497 222.379 280.61 221.393C253.03 216.753 247.37 194.133 248.92 169.953C248.933 169.713 249.063 169.593 249.31 169.593L275.49 169.583C275.83 169.583 276 169.756 276 170.103C275.98 178.156 276.013 183.203 276.1 185.243C276.53 195.373 285.83 200.893 294.84 196.223Z" fill="black"/>
<path d="M373.98 197.383C380.93 199.273 387.86 195.513 389.21 188.073C392.02 172.523 384.4 160.853 373.52 150.823C367.753 145.516 362.07 140.112 356.47 134.612C344.31 122.672 338.317 108.539 338.49 92.2125C338.77 65.9325 355.14 48.5925 383.09 51.2725C408.9 53.7425 417.76 74.9025 415.82 98.0625C415.787 98.4158 415.597 98.5925 415.25 98.5925H391.51C391.19 98.5925 391.027 98.4292 391.02 98.1025C390.9 91.8425 391.97 83.3525 386.99 78.4925C382.84 74.4425 375.08 74.2325 370.32 77.1425C367.96 78.5825 366.413 81.0658 365.68 84.5925C361.07 106.722 379.37 120.043 393.15 132.943C409.44 148.203 418.42 164.203 415.93 187.323C414.01 205.243 404.66 218.563 385.77 221.473C363.25 224.943 342.23 214.133 338.63 190.253C337.717 184.233 337.467 177.476 337.88 169.983C337.893 169.723 338.03 169.592 338.29 169.592L364.49 169.582C364.83 169.582 364.997 169.752 364.99 170.092C364.95 178.702 362.57 194.283 373.98 197.383Z" fill="black"/>
<path d="M83.75 123.913C83.75 124.759 83.93 124.799 84.29 124.033L117.71 53.2125C117.83 52.9659 118.027 52.8425 118.3 52.8425H143.96C144.293 52.8425 144.387 52.9925 144.24 53.2925L108.13 127.013C108.061 127.158 108.023 127.316 108.017 127.478C108.012 127.639 108.04 127.801 108.1 127.953L144.25 219.783C144.265 219.816 144.271 219.852 144.267 219.888C144.264 219.924 144.251 219.959 144.231 219.99C144.21 220.021 144.182 220.046 144.148 220.064C144.115 220.082 144.078 220.092 144.04 220.093H117.7C117.533 220.093 117.37 220.043 117.232 219.948C117.094 219.853 116.989 219.719 116.93 219.563L92.01 154.583C91.9872 154.526 91.9488 154.477 91.8991 154.441C91.8494 154.406 91.7906 154.385 91.7296 154.382C91.6686 154.379 91.608 154.393 91.5549 154.424C91.5018 154.454 91.4585 154.499 91.43 154.553L84.1 168.273C83.8667 168.706 83.75 169.169 83.75 169.663V219.593C83.75 219.926 83.5833 220.093 83.25 220.093H57.75C57.4167 220.093 57.25 219.926 57.25 219.593V53.0925C57.25 52.9259 57.3333 52.8425 57.5 52.8425H83.25C83.5833 52.8425 83.75 53.0092 83.75 53.3425V123.913Z" fill="black"/>
<path d="M179.99 190.123L175.54 219.803C175.528 219.879 175.49 219.95 175.431 220.001C175.373 220.052 175.298 220.081 175.22 220.083L149.39 220.113C149.342 220.113 149.295 220.103 149.251 220.084C149.207 220.064 149.168 220.035 149.137 219.999C149.106 219.963 149.082 219.92 149.069 219.874C149.056 219.828 149.053 219.78 149.06 219.733L175.57 53.1225C175.582 53.0456 175.62 52.9754 175.679 52.9241C175.737 52.8729 175.812 52.844 175.89 52.8425H216.02C216.098 52.844 216.173 52.8729 216.231 52.9241C216.29 52.9754 216.328 53.0456 216.34 53.1225L242.86 219.713C242.867 219.76 242.864 219.808 242.851 219.854C242.837 219.9 242.814 219.943 242.783 219.979C242.752 220.015 242.713 220.044 242.669 220.064C242.625 220.083 242.578 220.093 242.53 220.093H216.71C216.632 220.091 216.557 220.062 216.499 220.011C216.44 219.96 216.402 219.889 216.39 219.813L211.91 190.123C211.898 190.046 211.86 189.975 211.801 189.924C211.743 189.873 211.668 189.844 211.59 189.843H180.31C180.232 189.844 180.157 189.873 180.099 189.924C180.04 189.975 180.002 190.046 179.99 190.123ZM208.31 166.273L196.18 85.8425C195.993 84.5959 195.807 84.5992 195.62 85.8525L183.52 166.583C183.516 166.615 183.518 166.649 183.527 166.68C183.536 166.712 183.552 166.741 183.573 166.766C183.594 166.79 183.619 166.81 183.648 166.823C183.677 166.836 183.708 166.843 183.74 166.843H207.82C208.207 166.843 208.37 166.653 208.31 166.273Z" fill="black"/>
<path d="M457.2 52.8425H431.3C431.134 52.8425 431 52.9768 431 53.1425V219.803C431 219.968 431.134 220.103 431.3 220.103H457.2C457.366 220.103 457.5 219.968 457.5 219.803V53.1425C457.5 52.9768 457.366 52.8425 457.2 52.8425Z" fill="black"/>
<path d="M538.75 138.733C552.15 145.613 554.97 158.983 554.98 172.793C554.987 182.393 554.993 191.993 555 201.593C555 207.659 555.747 213.626 557.24 219.493C557.34 219.893 557.183 220.093 556.77 220.093H531.51C531.19 220.093 530.983 219.943 530.89 219.643C529.697 215.929 529.033 212.143 528.9 208.283C528.48 196.056 528.343 183.826 528.49 171.593C528.71 153.183 518.56 151.583 503.2 152.143C502.9 152.156 502.75 152.313 502.75 152.613V219.593C502.75 219.926 502.583 220.093 502.25 220.093H476.75C476.417 220.093 476.25 219.926 476.25 219.593V53.3626C476.25 53.0426 476.407 52.8826 476.72 52.8826C493.593 52.7893 506.433 52.7793 515.24 52.8526C540.27 53.0726 554.49 63.2326 554.73 89.7426C554.89 107.833 556.97 127.943 538.74 138.183C538.4 138.376 538.403 138.559 538.75 138.733ZM503.2 128.023C513.93 128.413 527.24 129.553 528.21 114.593C528.61 108.453 528.687 101.399 528.44 93.4326C527.87 74.9226 517.89 76.9426 503.24 77.1126C502.913 77.1126 502.75 77.2759 502.75 77.6026V127.563C502.75 127.863 502.9 128.016 503.2 128.023Z" fill="black"/>
</svg>
