<svg width="1101" height="273" viewBox="0 0 1101 273" fill="none" xmlns="http://www.w3.org/2000/svg">
<path d="M1075.29 136.5C1075.29 123.346 1085.92 112.716 1099.08 112.716V1.03418H788.767C790.049 2.44054 790.876 4.34327 790.876 6.41145C790.876 10.7546 787.402 14.3119 783.059 14.436V20.5992C787.402 20.7233 790.876 24.2805 790.876 28.6237C790.876 32.9669 787.402 36.5242 783.059 36.6483V42.8114C787.319 42.9355 790.752 46.4101 790.835 50.6705C790.752 54.931 787.319 58.3642 783.059 58.5296V65.0651C787.319 65.1892 790.752 68.6224 790.835 72.9242C790.752 77.1846 787.319 80.6178 783.059 80.7833V87.3187C787.319 87.4428 790.752 90.876 790.835 95.1778C790.752 99.4383 787.319 102.871 783.059 103.037V109.2C787.402 109.324 790.876 112.881 790.876 117.225C790.876 121.568 787.402 125.125 783.059 125.249V131.412C787.402 131.536 790.876 135.094 790.876 139.437C790.876 143.78 787.402 147.337 783.059 147.461V153.997C787.402 154.121 790.876 157.678 790.876 162.021C790.876 166.365 787.402 169.922 783.059 170.046V176.209C787.402 176.333 790.876 179.891 790.876 184.234C790.876 188.577 787.402 192.134 783.059 192.258V198.421C787.319 198.546 790.752 201.979 790.835 206.281C790.752 210.541 787.319 213.974 783.059 214.14V220.675C787.319 220.799 790.752 224.232 790.835 228.534C790.752 232.795 787.319 236.228 783.059 236.393V242.556C787.402 242.681 790.876 246.238 790.876 250.581C790.876 254.924 787.402 258.481 783.059 258.606V264.769C787.03 264.893 790.256 267.912 790.752 271.759H1099.08V160.077C1085.92 160.077 1075.29 149.447 1075.29 136.293" fill="#C82846"/>
<path d="M777.549 8.68645V2.52327C775.936 2.48191 774.447 1.90282 773.206 1.03418H1.19531V112.716C14.3489 112.716 24.9794 123.388 24.9794 136.5C24.9794 149.612 14.3489 160.284 1.19531 160.284V271.966H777.549V268.988C773.248 268.864 769.773 265.348 769.732 261.005C769.773 256.661 773.206 253.187 777.549 253.021V246.321C773.289 246.196 769.897 242.805 769.773 238.544C769.897 234.284 773.289 230.892 777.549 230.768V224.067C773.372 223.943 770.021 220.634 769.773 216.497C769.98 212.32 773.33 209.011 777.549 208.886V201.813C773.372 201.689 770.021 198.38 769.814 194.244C770.063 190.107 773.372 186.798 777.549 186.674V179.601C773.372 179.477 770.021 176.168 769.814 172.031C770.063 167.895 773.372 164.586 777.549 164.421V157.72C773.289 157.596 769.897 154.204 769.773 149.943C769.897 145.683 773.289 142.291 777.549 142.167V135.466C773.578 135.342 770.352 132.322 769.856 128.476H769.814C769.814 128.476 769.773 128.145 769.773 127.979C769.773 123.595 773.248 120.079 777.591 119.955V113.419C773.248 113.295 769.773 109.738 769.773 105.395C769.773 101.051 773.248 97.4942 777.591 97.3701V91.2069C773.248 91.0828 769.773 87.5255 769.773 83.1824C769.773 78.8392 773.248 75.2819 777.591 75.1578V68.9946C773.33 68.8705 769.897 65.396 769.814 61.1355C769.897 56.8751 773.33 53.4419 777.591 53.2765V46.741C773.33 46.6169 769.897 43.1837 769.814 38.8819C769.897 34.6215 773.33 31.1883 777.591 31.0228V24.8596C773.248 24.7355 769.773 21.1783 769.773 16.8351C769.773 12.4919 773.248 8.93463 777.591 8.81054" fill="#0064B4"/>
<path d="M52.9004 53.8535H133.27V77.5135H106.094V219.391H80.0763V77.5135H52.9004V53.8535Z" fill="white"/>
<path d="M144.645 53.8535H170.662V219.349H144.645V53.8535Z" fill="white"/>
<path d="M264.98 157.631V179.637C264.98 206.11 251.742 221.249 226.221 221.249C200.7 221.249 187.422 206.11 187.422 179.637V93.5591C187.422 67.0863 200.658 51.9473 226.221 51.9473C251.784 51.9473 264.98 67.0863 264.98 93.5591V109.65H240.367V91.9045C240.367 80.0745 235.156 75.6073 226.883 75.6073C218.61 75.6073 213.398 80.1159 213.398 91.9045V181.291C213.398 193.121 218.61 197.382 226.883 197.382C235.156 197.382 240.367 193.121 240.367 181.291V157.631H264.98Z" fill="white"/>
<path d="M314.863 153.374L306.838 168.514V219.349H280.82V53.8535H306.838V125.95L340.88 53.8535H366.898L330.705 127.605L366.898 219.349H340.177L314.863 153.374Z" fill="white"/>
<path d="M404.705 123.583H440.402V147.243H404.705V195.722H449.626V219.382H378.688V53.8857H449.626V77.5457H404.705V123.666V123.583Z" fill="white"/>
<path d="M458.143 53.8535H538.512V77.5135H511.336V219.391H485.319V77.5135H458.143V53.8535Z" fill="white"/>
<path d="M574.707 53.8535V181.543C574.707 193.373 579.919 197.634 588.191 197.634C596.464 197.634 601.676 193.373 601.676 181.543V53.8535H626.246V179.889C626.246 206.361 613.01 221.5 587.488 221.5C561.967 221.5 548.73 206.361 548.73 179.889V53.8535H574.748H574.707Z" fill="white"/>
<path d="M721.049 94.7621V116.271C721.049 142.744 708.267 157.18 682.291 157.18H670.006V219.349H643.988V53.8535H682.291C708.309 53.8535 721.049 68.2894 721.049 94.7621ZM669.965 77.5135V133.561H682.25C690.522 133.561 695.031 129.797 695.031 117.967V93.149C695.031 81.319 690.522 77.5549 682.25 77.5549H669.965V77.5135Z" fill="white"/>
<path d="M908.883 219.359C907.477 215.098 906.526 212.492 906.526 199.008V172.99C906.526 157.603 901.314 151.936 889.484 151.936H880.508V219.317H854.49V53.8213H893.744C920.713 53.8213 932.295 66.3545 932.295 91.8758V104.864C932.295 121.906 926.877 132.991 915.253 138.451C928.242 143.911 932.502 156.403 932.502 173.693V199.214C932.502 207.239 932.75 213.154 935.356 219.317H908.883V219.359ZM880.508 77.4813V128.317H890.683C900.363 128.317 906.278 124.057 906.278 110.82V94.5231C906.278 82.6931 902.265 77.4813 893.041 77.4813H880.508Z" fill="white"/>
<path d="M974.359 53.8701V181.56C974.359 193.39 979.571 197.65 987.844 197.65C996.116 197.65 1001.33 193.39 1001.33 181.56V53.8701H1025.9V179.905C1025.9 206.378 1012.66 221.517 987.141 221.517C961.619 221.517 948.383 206.378 948.383 179.905V53.8701H974.401H974.359Z" fill="white"/>
</svg>
