<svg width="32" height="32" viewBox="0 0 32 32" fill="none" xmlns="http://www.w3.org/2000/svg">
<path d="M24.0524 7H7.94765C7.70178 7.0166 7.47027 7.12177 7.29602 7.29602C7.12177 7.47027 7.0166 7.70178 7 7.94765V24.0524C7.00139 24.3033 7.10168 24.5435 7.2791 24.7209C7.45651 24.8983 7.69674 24.9986 7.94765 25H16.5686V17.9895H14.2942V15.3372H16.6628V13.3476C16.6118 12.8705 16.6666 12.388 16.8233 11.9345C16.9801 11.4809 17.2349 11.0676 17.5697 10.7238C17.9045 10.38 18.311 10.1143 18.7602 9.94558C19.2094 9.77685 19.6903 9.70927 20.1686 9.74765C21.1162 9.74765 21.9686 9.84188 22.2524 9.84188V12.3058H20.8314C19.6942 12.3058 19.5047 12.8744 19.5047 13.6325V15.3372H22.1571L21.778 18.0848H19.4105V25H24.0524C24.3033 24.9986 24.5435 24.8983 24.7209 24.7209C24.8983 24.5435 24.9986 24.3033 25 24.0524V7.94765C24.9834 7.70178 24.8782 7.47027 24.704 7.29602C24.5297 7.12177 24.2982 7.0166 24.0524 7V7Z" fill="#CCCCCC"/>
</svg>
