<svg width="32" height="32" viewBox="0 0 32 32" fill="none" xmlns="http://www.w3.org/2000/svg">
<path fill-rule="evenodd" clip-rule="evenodd" d="M5 11.4545C5 7.90226 7.90226 5 11.4545 5H20.5455C24.0977 5 27 7.90226 27 11.4545V20.5455C27 24.0977 24.0977 27 20.5455 27H11.4545C7.90226 27 5 24.0977 5 20.5455V11.4545ZM11.4545 7C9.00683 7 7 9.00683 7 11.4545V20.5455C7 22.9932 9.00683 25 11.4545 25H20.5455C22.9932 25 25 22.9932 25 20.5455V11.4545C25 9.00683 22.9932 7 20.5455 7H11.4545ZM16 19C17.6569 19 19 17.6569 19 16C19 14.3431 17.6569 13 16 13C14.3431 13 13 14.3431 13 16C13 17.6569 14.3431 19 16 19ZM16 21C18.7614 21 21 18.7614 21 16C21 13.2386 18.7614 11 16 11C13.2386 11 11 13.2386 11 16C11 18.7614 13.2386 21 16 21ZM21 11C21.5523 11 22 10.5523 22 10C22 9.44772 21.5523 9 21 9C20.4477 9 20 9.44772 20 10C20 10.5523 20.4477 11 21 11Z" fill="#CCCCCC"/>
</svg>
