<svg width="1280" height="1019" viewBox="0 0 1280 1019" fill="none" xmlns="http://www.w3.org/2000/svg">
<path d="M640.2 700.4C760.25 794.61 927.67 803.88 1056.95 722.45C1169.81 651.36 1234.87 524.38 1225.85 390.81C1213.63 209.68 1069.55 67.2201 889.65 53.9601C878.74 53.1501 866.57 53.5201 855.06 53.5201C847.3 53.5201 840.643 53.7568 835.09 54.2301C762.65 60.3835 697.7 85.8001 640.24 130.48" stroke="#DBDBDB" stroke-width="2"/>
<path d="M640.24 130.48C582.347 85.4 516.827 59.9401 443.68 54.1001C431.97 53.1601 419.1 53.4801 406.82 53.5201C399.147 53.5534 392.49 53.8034 386.85 54.2701C189.52 70.5601 41.85 241.94 54.6 438.92C65.87 612.97 201.38 756.09 374.23 775.45C469.51 786.12 564.91 760.05 640.2 700.4" stroke="#808080" stroke-width="2"/>
<path d="M640.24 130.48C645.833 135.38 651.397 140.283 656.93 145.19C817.6 287.72 818.68 539.36 659.28 683.51C653.08 689.11 646.72 694.74 640.2 700.4" stroke="#5B5B5B" stroke-width="2"/>
<path d="M1189.5 628.47C1189.61 628.48 1189.71 628.531 1189.79 628.612C1189.86 628.694 1189.9 628.8 1189.9 628.91L1189.88 639.4C1189.88 639.497 1189.91 639.592 1189.97 639.669C1190.02 639.747 1190.11 639.804 1190.2 639.83L1191.91 640.3C1191.98 640.319 1192.05 640.322 1192.11 640.309C1192.18 640.296 1192.24 640.268 1192.3 640.226C1192.35 640.184 1192.4 640.13 1192.43 640.068C1192.46 640.007 1192.47 639.939 1192.47 639.87L1192.42 628.69C1192.42 628.573 1192.47 628.461 1192.55 628.379C1192.63 628.296 1192.74 628.25 1192.86 628.25H1196.81C1196.93 628.25 1197.04 628.204 1197.12 628.121C1197.2 628.039 1197.25 627.927 1197.25 627.81V626.51C1197.25 626.393 1197.2 626.281 1197.12 626.199C1197.04 626.116 1196.93 626.07 1196.81 626.07L1185.69 626.11C1185.57 626.11 1185.46 626.156 1185.38 626.239C1185.3 626.321 1185.25 626.433 1185.25 626.55V627.71C1185.25 627.818 1185.29 627.922 1185.37 628.002C1185.44 628.081 1185.54 628.13 1185.65 628.14L1189.5 628.47Z" stroke="#DBDBDB" stroke-width="2"/>
<path d="M1203.1 630.39L1206.35 637.86C1206.47 638.137 1206.67 638.373 1206.92 638.538C1207.17 638.704 1207.47 638.793 1207.77 638.794C1208.07 638.795 1208.37 638.708 1208.63 638.544C1208.88 638.38 1209.08 638.146 1209.21 637.87L1212.81 629.88C1212.82 629.826 1212.86 629.779 1212.91 629.75C1212.96 629.72 1213.01 629.71 1213.07 629.722C1213.12 629.733 1213.17 629.765 1213.2 629.812C1213.24 629.858 1213.25 629.914 1213.24 629.97L1213.27 639.38C1213.27 639.44 1213.29 639.5 1213.31 639.553C1213.34 639.607 1213.38 639.653 1213.43 639.689C1213.48 639.725 1213.53 639.749 1213.59 639.76C1213.65 639.77 1213.71 639.767 1213.77 639.75C1213.96 639.697 1214.12 639.763 1214.26 639.95C1214.35 640.06 1214.47 640.142 1214.6 640.182C1214.74 640.223 1214.88 640.221 1215.01 640.177C1215.15 640.133 1215.26 640.049 1215.34 639.937C1215.43 639.825 1215.47 639.689 1215.47 639.55L1215.52 626.76C1215.52 626.42 1215.35 626.25 1215.01 626.25H1212.71C1212.34 626.25 1212.08 626.42 1211.93 626.76L1208.17 635.22C1208.14 635.288 1208.09 635.346 1208.03 635.387C1207.96 635.427 1207.89 635.448 1207.82 635.447C1207.74 635.446 1207.67 635.423 1207.61 635.381C1207.55 635.339 1207.5 635.279 1207.47 635.21L1203.97 627.07C1203.78 626.622 1203.44 626.255 1203 626.031C1202.57 625.807 1202.07 625.741 1201.6 625.844C1201.12 625.947 1200.69 626.212 1200.39 626.595C1200.09 626.977 1199.93 627.453 1199.94 627.94L1200.16 639.44C1200.17 639.973 1200.43 640.163 1200.94 640.01L1201.65 639.81C1202.02 639.697 1202.2 639.447 1202.21 639.06L1202.32 630.54C1202.32 630.447 1202.35 630.357 1202.41 630.285C1202.47 630.213 1202.55 630.164 1202.64 630.146C1202.73 630.129 1202.83 630.143 1202.91 630.188C1203 630.232 1203.06 630.304 1203.1 630.39Z" stroke="#DBDBDB" stroke-width="2"/>
<path d="M1148.5 949.24V959.45C1148.5 959.757 1148.65 959.913 1148.96 959.92L1168.23 960.26C1168.4 960.264 1168.56 960.235 1168.71 960.174C1168.87 960.114 1169.01 960.023 1169.13 959.908C1169.24 959.792 1169.34 959.654 1169.4 959.502C1169.47 959.349 1169.5 959.185 1169.5 959.02V825.75C1169.5 825.417 1169.33 825.25 1169 825.25H1149C1148.67 825.25 1148.5 825.417 1148.5 825.75V874.52C1148.5 875.153 1148.29 875.23 1147.88 874.75C1128.81 852.39 1093.58 859.88 1078.69 882.51C1066.46 901.08 1066.78 929.12 1082.32 946.43C1098.87 964.86 1130.26 969.72 1147.95 949.04C1148.32 948.607 1148.5 948.673 1148.5 949.24Z" stroke="#808080" stroke-width="2"/>
<path d="M523.7 883.5C523.74 898.987 523.85 914.463 524.03 929.93C524.2 944.56 529.7 957.46 545.03 960.94C558.397 963.98 571.047 962.143 582.98 955.43C583.267 955.263 583.357 955.027 583.25 954.72L577.59 937.95C577.383 937.35 577.003 937.207 576.45 937.52C566.07 943.5 545.2 947.58 545.07 928.47C544.977 913.497 544.96 898.503 545.02 883.49C545.02 883.163 545.183 883 545.51 883H578.5C578.699 883 578.89 882.921 579.03 882.78C579.171 882.64 579.25 882.449 579.25 882.25V864.25C579.25 864.117 579.197 863.99 579.104 863.896C579.01 863.803 578.883 863.75 578.75 863.75H545.47C545.4 863.75 545.33 863.736 545.265 863.709C545.2 863.683 545.141 863.643 545.092 863.594C545.042 863.545 545.003 863.486 544.977 863.422C544.951 863.358 544.939 863.289 544.94 863.22L545.03 835.27C545.03 834.923 544.86 834.747 544.52 834.74L524.42 834.42C524.332 834.419 524.246 834.435 524.164 834.467C524.083 834.5 524.009 834.548 523.947 834.61C523.884 834.671 523.835 834.744 523.801 834.825C523.767 834.906 523.75 834.993 523.75 835.08V863.25C523.75 863.583 523.583 863.75 523.25 863.75H504.75C504.617 863.75 504.49 863.803 504.396 863.896C504.303 863.99 504.25 864.117 504.25 864.25V882.29C504.25 882.643 504.43 882.823 504.79 882.83L523.27 883.07C523.557 883.077 523.7 883.22 523.7 883.5Z" stroke="#808080" stroke-width="2"/>
<path d="M134.38 874.73L134.22 864.5C134.213 864.027 133.973 863.79 133.5 863.79L114.01 863.73C113.67 863.73 113.5 863.9 113.5 864.24V959.64C113.5 959.893 113.627 960.02 113.88 960.02L133.91 960.09C134.33 960.097 134.54 959.887 134.54 959.46C134.433 943.573 134.453 927.687 134.6 911.8C134.667 904.4 135.233 899.093 136.3 895.88C139.773 885.387 148.027 880.523 161.06 881.29C173.07 881.99 178.82 893.02 179.02 903.76C179.313 918.98 179.367 937.513 179.18 959.36C179.18 959.753 179.373 959.953 179.76 959.96L199.67 960.16C200.03 960.16 200.213 959.98 200.22 959.62C200.28 943.247 200.293 926.873 200.26 910.5C200.22 894.89 205.1 882.07 222.73 881.15C239.53 880.27 244.89 892.68 244.94 907.32C245.007 924.72 245.023 942.143 244.99 959.59C244.99 959.997 245.19 960.2 245.59 960.2L265.66 960.23C266 960.23 266.17 960.06 266.17 959.72C266.157 941.167 266.083 922.624 265.95 904.09C265.89 895.87 265.337 889.997 264.29 886.47C255.17 855.77 211.54 853.29 194.82 878.09C194.788 878.139 194.744 878.178 194.692 878.206C194.641 878.233 194.583 878.247 194.524 878.247C194.465 878.247 194.407 878.233 194.354 878.206C194.301 878.178 194.255 878.139 194.22 878.09C185.747 865.857 173.983 860.383 158.93 861.67C148.08 862.59 141.57 866.85 135.05 874.97C134.61 875.517 134.387 875.437 134.38 874.73Z" stroke="#808080" stroke-width="2"/>
<path d="M363.25 949.24V959.52C363.25 959.873 363.423 960.05 363.77 960.05L383.76 959.98C384.087 959.98 384.25 959.817 384.25 959.49V864.4C384.25 864 384.05 863.8 383.65 863.8L363.84 863.81C363.447 863.81 363.25 864.007 363.25 864.4V874.49C363.25 875.09 363.053 875.163 362.66 874.71C347.54 857.1 320.63 857.9 303.37 871.53C281.44 888.85 278.17 924.94 296.71 946.05C313.24 964.87 344.74 969.82 362.69 949.03C363.063 948.59 363.25 948.66 363.25 949.24Z" stroke="#808080" stroke-width="2"/>
<path d="M408.76 895.56C410.94 917.87 437.52 919.91 454.05 922.53C460.16 923.49 470.11 926.1 468.12 934.06C466.68 939.8 460.77 942.16 455.25 942.98C440.183 945.193 426.67 942.24 414.71 934.12C414.43 933.927 414.203 933.977 414.03 934.27L404.81 949.59C404.737 949.709 404.714 949.851 404.743 949.987C404.773 950.123 404.854 950.243 404.97 950.32C422.09 962.16 443.65 964.92 463.65 960.24C481.07 956.16 493.75 942.54 489.08 923.87C485.07 907.79 467.79 904.36 453.89 901.95C447.63 900.86 429.98 900.6 430.36 890.97C430.76 880.48 445.72 879.68 452.94 880.36C461.84 881.193 470.23 883.767 478.11 888.08C478.457 888.267 478.723 888.187 478.91 887.84L487.45 871.97C487.63 871.63 487.553 871.36 487.22 871.16C469.95 860.82 438.97 856.77 421.43 868.16C411.803 874.413 407.58 883.547 408.76 895.56Z" stroke="#808080" stroke-width="2"/>
<path d="M619.01 920H688.99C689.303 920 689.48 919.84 689.52 919.52C692.99 890.84 678.14 863.62 646.99 861.71C579.86 857.61 577.99 966.8 650.73 962.36C662.997 961.613 674.247 957.437 684.48 949.83C684.725 949.647 684.891 949.376 684.943 949.073C684.995 948.77 684.93 948.458 684.76 948.2L675.32 933.95C675.113 933.643 674.863 933.6 674.57 933.82C656.66 947.32 622.74 949.5 618.63 920.44C618.59 920.147 618.717 920 619.01 920Z" stroke="#808080" stroke-width="2"/>
<path d="M732.5 873.99V864.51C732.5 864.063 732.277 863.84 731.83 863.84L712.28 863.71C711.893 863.71 711.7 863.903 711.7 864.29L711.67 959.73C711.67 960.11 711.857 960.297 712.23 960.29L731.82 960.15C732.273 960.15 732.5 959.923 732.5 959.47C732.493 942.043 732.507 924.617 732.54 907.19C732.547 904.617 732.85 901.537 733.45 897.95C736.24 881.13 752.25 878.55 765.79 883.58C766.09 883.693 766.29 883.597 766.39 883.29L772.47 864.73C772.597 864.33 772.463 864.06 772.07 863.92C757.76 858.78 742.42 861.14 733.35 874.26C732.783 875.073 732.5 874.983 732.5 873.99Z" stroke="#808080" stroke-width="2"/>
<path d="M780.36 924.56C784.42 943.48 799.09 957.55 818.01 961.22C834.2 964.35 851.3 961.95 864.42 951.34C864.733 951.08 864.787 950.777 864.58 950.43L855.09 934.45C855.058 934.397 855.015 934.351 854.964 934.315C854.913 934.279 854.855 934.254 854.794 934.242C854.732 934.23 854.669 934.231 854.609 934.244C854.548 934.257 854.49 934.283 854.44 934.32C836.82 947.2 809.91 946.39 802.2 922.51C799.7 914.76 800.4 904.67 803.97 897.23C813.72 876.9 838.25 877.89 854.41 889.5C854.71 889.713 854.953 889.663 855.14 889.35L864.62 873.41C864.701 873.275 864.73 873.116 864.702 872.962C864.675 872.808 864.592 872.668 864.47 872.57C853.07 863.53 839.58 860.43 825.28 861.65C792 864.49 773.52 892.7 780.36 924.56Z" stroke="#808080" stroke-width="2"/>
<path d="M954.25 949.25V959.74C954.25 959.82 954.282 959.896 954.338 959.952C954.394 960.008 954.47 960.04 954.55 960.04L974.72 960.01C974.861 960.01 974.995 959.953 975.095 959.852C975.194 959.751 975.25 959.613 975.25 959.47V864.25C975.25 863.917 975.083 863.75 974.75 863.75H954.75C954.617 863.75 954.49 863.803 954.396 863.896C954.303 863.99 954.25 864.117 954.25 864.25V874.51C954.25 875.21 954.023 875.293 953.57 874.76C940.27 859.12 917.24 857.86 900.48 867.37C860.19 890.21 870.68 958.78 919.93 962.24C933.49 963.19 944.9 959.29 953.71 949.05C954.07 948.637 954.25 948.703 954.25 949.25Z" stroke="#808080" stroke-width="2"/>
<path d="M1023.27 874.43L1023.28 864.36C1023.28 864.198 1023.22 864.043 1023.1 863.929C1022.99 863.814 1022.83 863.75 1022.67 863.75H1003.25C1003.12 863.75 1002.99 863.803 1002.9 863.896C1002.8 863.99 1002.75 864.117 1002.75 864.25V959.58C1002.75 959.96 1002.94 960.15 1003.33 960.15L1022.8 960.21C1023.43 960.21 1023.74 959.897 1023.74 959.27C1023.74 941.083 1023.75 923.09 1023.77 905.29C1023.8 884.46 1038.38 876.82 1056.79 883.57C1057.13 883.697 1057.36 883.587 1057.47 883.24L1063.58 864.56C1063.62 864.426 1063.61 864.28 1063.55 864.153C1063.49 864.026 1063.37 863.928 1063.24 863.88C1047.35 858.4 1034.33 861.47 1024.01 874.68C1023.52 875.313 1023.27 875.23 1023.27 874.43Z" stroke="#808080" stroke-width="2"/>
<path d="M1214.01 955.68C1214.01 953.129 1213 950.682 1211.19 948.878C1209.39 947.074 1206.94 946.06 1204.39 946.06C1201.84 946.06 1199.39 947.074 1197.59 948.878C1195.78 950.682 1194.77 953.129 1194.77 955.68C1194.77 958.231 1195.78 960.678 1197.59 962.482C1199.39 964.287 1201.84 965.3 1204.39 965.3C1206.94 965.3 1209.39 964.287 1211.19 962.482C1213 960.678 1214.01 958.231 1214.01 955.68Z" stroke="#808080" stroke-width="2"/>
<path d="M1109.35 940.48C1123.27 946.45 1141.05 940.32 1146.9 925.91C1151.42 914.78 1150.59 901.2 1143.02 891.59C1131.56 877.04 1107.4 877.81 1097.08 893.28C1086.46 909.17 1091.3 932.74 1109.35 940.48Z" stroke="#808080" stroke-width="2"/>
<path d="M306.93 918.55C309.84 935.43 324.77 945.45 341.52 942.04C372.34 935.77 371.8 887.31 341.2 881.76C318.33 877.61 303.14 896.53 306.93 918.55Z" stroke="#808080" stroke-width="2"/>
<path d="M619.04 903.54L667.98 903.46C668.009 903.46 668.037 903.448 668.058 903.428C668.078 903.407 668.09 903.379 668.09 903.35V903.3C668.085 900.269 667.453 897.269 666.229 894.47C665.005 891.672 663.213 889.13 660.957 886.991C658.7 884.852 656.023 883.156 653.077 882.001C650.132 880.846 646.976 880.255 643.79 880.26H643.15C636.716 880.271 630.55 882.713 626.008 887.049C621.466 891.385 618.92 897.259 618.93 903.38V903.43C618.93 903.459 618.942 903.487 618.962 903.508C618.983 903.528 619.011 903.54 619.04 903.54Z" stroke="#808080" stroke-width="2"/>
<path d="M926.073 942.969C933.839 943.023 941.309 939.806 946.84 934.026C952.372 928.245 955.512 920.374 955.569 912.144C955.627 903.915 952.597 896.001 947.147 890.144C941.696 884.286 934.272 880.965 926.507 880.911C918.741 880.857 911.271 884.074 905.74 889.854C900.208 895.635 897.068 903.506 897.011 911.736C896.953 919.965 899.983 927.879 905.433 933.736C910.884 939.594 918.308 942.915 926.073 942.969Z" stroke="#808080" stroke-width="2"/>
<path d="M1211.76 955.71C1211.76 953.755 1210.98 951.881 1209.6 950.499C1208.22 949.117 1206.34 948.34 1204.39 948.34C1202.44 948.34 1200.56 949.117 1199.18 950.499C1197.8 951.881 1197.02 953.755 1197.02 955.71C1197.02 957.665 1197.8 959.539 1199.18 960.921C1200.56 962.304 1202.44 963.08 1204.39 963.08C1206.34 963.08 1208.22 962.304 1209.6 960.921C1210.98 959.539 1211.76 957.665 1211.76 955.71Z" stroke="#808080" stroke-width="2"/>
<path d="M1202.75 957.45C1202.75 957.328 1202.79 957.209 1202.86 957.11C1202.93 957.01 1203.03 956.935 1203.14 956.895C1203.26 956.855 1203.38 956.853 1203.5 956.888C1203.61 956.923 1203.72 956.993 1203.79 957.09C1204.69 958.223 1205.69 959.26 1206.79 960.2C1207.2 960.547 1207.6 960.503 1207.99 960.07C1208.18 959.857 1208.18 959.643 1208 959.43L1206.21 957.3C1205.94 956.98 1206 956.75 1206.39 956.61C1208.51 955.857 1209.03 954.323 1207.94 952.01C1207.89 951.904 1207.82 951.813 1207.72 951.746C1207.63 951.68 1207.52 951.639 1207.4 951.63L1201.51 951.13C1201.41 951.122 1201.31 951.134 1201.22 951.166C1201.12 951.198 1201.04 951.249 1200.96 951.316C1200.89 951.383 1200.83 951.464 1200.8 951.554C1200.76 951.645 1200.74 951.742 1200.74 951.84L1200.78 959.32C1200.78 959.582 1200.88 959.843 1201.07 960.046C1201.25 960.248 1201.5 960.375 1201.77 960.399C1202.03 960.423 1202.28 960.341 1202.46 960.173C1202.65 960.004 1202.75 959.762 1202.75 959.5V957.45Z" stroke="#808080" stroke-width="2"/>
<path d="M1206.48 953.932C1206.47 953.598 1206.25 953.285 1205.87 953.061C1205.5 952.838 1205 952.723 1204.48 952.741C1203.96 952.759 1203.46 952.909 1203.1 953.158C1202.74 953.407 1202.55 953.735 1202.56 954.069C1202.57 954.402 1202.79 954.716 1203.17 954.939C1203.54 955.162 1204.04 955.277 1204.56 955.259C1205.08 955.241 1205.58 955.091 1205.94 954.842C1206.3 954.593 1206.49 954.266 1206.48 953.932Z" stroke="#808080" stroke-width="2"/>
<path d="M640.24 130.48C645.833 135.38 651.397 140.283 656.93 145.19C817.6 287.72 818.68 539.36 659.28 683.51C653.08 689.11 646.72 694.74 640.2 700.4C564.91 760.05 469.51 786.12 374.23 775.45C201.38 756.09 65.87 612.97 54.6 438.92C41.85 241.94 189.52 70.5601 386.85 54.2701C392.49 53.8034 399.147 53.5534 406.82 53.5201C419.1 53.4801 431.97 53.1601 443.68 54.1001C516.827 59.9401 582.347 85.4 640.24 130.48Z" fill="#454545"/>
<path d="M640.2 700.4C646.72 694.74 653.08 689.11 659.28 683.51C818.68 539.36 817.6 287.72 656.93 145.19C651.397 140.283 645.833 135.38 640.24 130.48C697.7 85.7999 762.65 60.3832 835.09 54.2299C840.643 53.7565 847.3 53.5199 855.06 53.5199C866.57 53.5199 878.74 53.1499 889.65 53.9599C1069.55 67.2199 1213.63 209.68 1225.85 390.81C1234.87 524.38 1169.81 651.36 1056.95 722.45C927.67 803.88 760.25 794.61 640.2 700.4Z" fill="white"/>
<path d="M1189.5 628.47L1185.65 628.14C1185.54 628.13 1185.44 628.081 1185.37 628.002C1185.29 627.922 1185.25 627.818 1185.25 627.71V626.55C1185.25 626.433 1185.3 626.321 1185.38 626.239C1185.46 626.156 1185.57 626.11 1185.69 626.11L1196.81 626.07C1196.93 626.07 1197.04 626.116 1197.12 626.199C1197.2 626.281 1197.25 626.393 1197.25 626.51V627.81C1197.25 627.927 1197.2 628.039 1197.12 628.121C1197.04 628.204 1196.93 628.25 1196.81 628.25H1192.86C1192.74 628.25 1192.63 628.296 1192.55 628.379C1192.47 628.461 1192.42 628.573 1192.42 628.69L1192.47 639.87C1192.47 639.939 1192.46 640.007 1192.43 640.068C1192.4 640.13 1192.35 640.184 1192.3 640.226C1192.24 640.268 1192.18 640.296 1192.11 640.309C1192.05 640.322 1191.98 640.319 1191.91 640.3L1190.2 639.83C1190.11 639.804 1190.02 639.747 1189.97 639.669C1189.91 639.592 1189.88 639.497 1189.88 639.4L1189.9 628.91C1189.9 628.8 1189.86 628.694 1189.79 628.612C1189.71 628.531 1189.61 628.48 1189.5 628.47Z" fill="#B6B6B6"/>
<path d="M1203.1 630.39C1203.06 630.304 1203 630.232 1202.91 630.188C1202.83 630.143 1202.73 630.129 1202.64 630.146C1202.55 630.164 1202.47 630.213 1202.41 630.285C1202.35 630.357 1202.32 630.447 1202.32 630.54L1202.21 639.06C1202.2 639.447 1202.02 639.697 1201.65 639.81L1200.94 640.01C1200.43 640.163 1200.17 639.973 1200.16 639.44L1199.94 627.94C1199.93 627.453 1200.09 626.977 1200.39 626.595C1200.69 626.212 1201.12 625.947 1201.6 625.844C1202.07 625.741 1202.57 625.807 1203 626.031C1203.44 626.255 1203.78 626.622 1203.97 627.07L1207.47 635.21C1207.5 635.279 1207.55 635.339 1207.61 635.381C1207.67 635.423 1207.74 635.446 1207.82 635.447C1207.89 635.448 1207.96 635.427 1208.03 635.387C1208.09 635.346 1208.14 635.288 1208.17 635.22L1211.93 626.76C1212.08 626.42 1212.34 626.25 1212.71 626.25H1215.01C1215.35 626.25 1215.52 626.42 1215.52 626.76L1215.47 639.55C1215.47 639.689 1215.43 639.825 1215.34 639.937C1215.26 640.049 1215.15 640.133 1215.01 640.177C1214.88 640.221 1214.74 640.223 1214.6 640.182C1214.47 640.142 1214.35 640.06 1214.26 639.95C1214.12 639.763 1213.96 639.697 1213.77 639.75C1213.71 639.767 1213.65 639.77 1213.59 639.76C1213.53 639.749 1213.48 639.725 1213.43 639.689C1213.38 639.653 1213.34 639.607 1213.31 639.553C1213.29 639.5 1213.27 639.44 1213.27 639.38L1213.24 629.97C1213.25 629.914 1213.24 629.858 1213.2 629.812C1213.17 629.765 1213.12 629.733 1213.07 629.722C1213.01 629.71 1212.96 629.72 1212.91 629.75C1212.86 629.779 1212.82 629.826 1212.81 629.88L1209.21 637.87C1209.08 638.146 1208.88 638.38 1208.63 638.544C1208.37 638.708 1208.07 638.795 1207.77 638.794C1207.47 638.793 1207.17 638.704 1206.92 638.538C1206.67 638.373 1206.47 638.137 1206.35 637.86L1203.1 630.39Z" fill="#B6B6B6"/>
<path d="M1147.95 949.04C1130.26 969.72 1098.87 964.86 1082.32 946.43C1066.78 929.12 1066.46 901.08 1078.69 882.51C1093.58 859.88 1128.81 852.39 1147.88 874.75C1148.29 875.23 1148.5 875.153 1148.5 874.52V825.75C1148.5 825.417 1148.67 825.25 1149 825.25H1169C1169.33 825.25 1169.5 825.417 1169.5 825.75V959.02C1169.5 959.185 1169.47 959.349 1169.4 959.502C1169.34 959.654 1169.24 959.792 1169.13 959.908C1169.01 960.023 1168.87 960.114 1168.71 960.174C1168.56 960.235 1168.4 960.264 1168.23 960.26L1148.96 959.92C1148.65 959.913 1148.5 959.757 1148.5 959.45V949.24C1148.5 948.673 1148.32 948.607 1147.95 949.04ZM1109.35 940.48C1123.27 946.45 1141.05 940.32 1146.9 925.91C1151.42 914.78 1150.59 901.2 1143.02 891.59C1131.56 877.04 1107.4 877.81 1097.08 893.28C1086.46 909.17 1091.3 932.74 1109.35 940.48Z" fill="white"/>
<path d="M523.27 883.07L504.79 882.83C504.43 882.823 504.25 882.643 504.25 882.29V864.25C504.25 864.117 504.303 863.99 504.396 863.896C504.49 863.803 504.617 863.75 504.75 863.75H523.25C523.583 863.75 523.75 863.583 523.75 863.25V835.08C523.75 834.993 523.767 834.906 523.801 834.825C523.835 834.744 523.884 834.671 523.947 834.61C524.009 834.548 524.083 834.5 524.164 834.467C524.246 834.435 524.332 834.419 524.42 834.42L544.52 834.74C544.86 834.747 545.03 834.923 545.03 835.27L544.94 863.22C544.939 863.289 544.951 863.358 544.977 863.422C545.003 863.486 545.042 863.545 545.092 863.594C545.141 863.643 545.2 863.683 545.265 863.709C545.33 863.736 545.4 863.75 545.47 863.75H578.75C578.883 863.75 579.01 863.803 579.104 863.896C579.197 863.99 579.25 864.117 579.25 864.25V882.25C579.25 882.449 579.171 882.64 579.03 882.78C578.89 882.921 578.699 883 578.5 883H545.51C545.183 883 545.02 883.163 545.02 883.49C544.96 898.503 544.977 913.497 545.07 928.47C545.2 947.58 566.07 943.5 576.45 937.52C577.003 937.207 577.383 937.35 577.59 937.95L583.25 954.72C583.357 955.027 583.267 955.263 582.98 955.43C571.047 962.143 558.397 963.98 545.03 960.94C529.7 957.46 524.2 944.56 524.03 929.93C523.85 914.463 523.74 898.987 523.7 883.5C523.7 883.22 523.557 883.077 523.27 883.07Z" fill="white"/>
<path d="M135.05 874.97C141.57 866.85 148.08 862.59 158.93 861.67C173.983 860.383 185.747 865.857 194.22 878.09C194.255 878.138 194.301 878.178 194.354 878.205C194.407 878.233 194.465 878.247 194.524 878.247C194.583 878.247 194.641 878.233 194.692 878.205C194.744 878.178 194.788 878.138 194.82 878.09C211.54 853.29 255.17 855.77 264.29 886.47C265.337 889.997 265.89 895.87 265.95 904.09C266.083 922.623 266.157 941.167 266.17 959.72C266.17 960.06 266 960.23 265.66 960.23L245.59 960.2C245.19 960.2 244.99 959.997 244.99 959.59C245.023 942.143 245.007 924.72 244.94 907.32C244.89 892.68 239.53 880.27 222.73 881.15C205.1 882.07 200.22 894.89 200.26 910.5C200.293 926.873 200.28 943.247 200.22 959.62C200.213 959.98 200.03 960.16 199.67 960.16L179.76 959.96C179.373 959.953 179.18 959.753 179.18 959.36C179.367 937.513 179.313 918.98 179.02 903.76C178.82 893.02 173.07 881.99 161.06 881.29C148.027 880.523 139.773 885.387 136.3 895.88C135.233 899.093 134.667 904.4 134.6 911.8C134.453 927.687 134.433 943.573 134.54 959.46C134.54 959.887 134.33 960.097 133.91 960.09L113.88 960.02C113.627 960.02 113.5 959.893 113.5 959.64V864.24C113.5 863.9 113.67 863.73 114.01 863.73L133.5 863.79C133.973 863.79 134.213 864.027 134.22 864.5L134.38 874.73C134.387 875.437 134.61 875.517 135.05 874.97Z" fill="white"/>
<path d="M362.69 949.03C344.74 969.82 313.24 964.87 296.71 946.05C278.17 924.94 281.44 888.85 303.37 871.53C320.63 857.9 347.54 857.1 362.66 874.71C363.053 875.163 363.25 875.09 363.25 874.49V864.4C363.25 864.007 363.447 863.81 363.84 863.81L383.65 863.8C384.05 863.8 384.25 864 384.25 864.4V959.49C384.25 959.817 384.087 959.98 383.76 959.98L363.77 960.05C363.423 960.05 363.25 959.873 363.25 959.52V949.24C363.25 948.66 363.063 948.59 362.69 949.03ZM306.93 918.55C309.84 935.43 324.77 945.45 341.52 942.04C372.34 935.77 371.8 887.31 341.2 881.76C318.33 877.61 303.14 896.53 306.93 918.55Z" fill="white"/>
<path d="M454.05 922.53C437.52 919.91 410.94 917.87 408.76 895.56C407.58 883.547 411.803 874.413 421.43 868.16C438.97 856.77 469.95 860.82 487.22 871.16C487.553 871.36 487.63 871.63 487.45 871.97L478.91 887.84C478.723 888.187 478.457 888.267 478.11 888.08C470.23 883.767 461.84 881.193 452.94 880.36C445.72 879.68 430.76 880.48 430.36 890.97C429.98 900.6 447.63 900.86 453.89 901.95C467.79 904.36 485.07 907.79 489.08 923.87C493.75 942.54 481.07 956.16 463.65 960.24C443.65 964.92 422.09 962.16 404.97 950.32C404.854 950.243 404.773 950.123 404.743 949.987C404.714 949.851 404.737 949.709 404.81 949.59L414.03 934.27C414.203 933.977 414.43 933.927 414.71 934.12C426.67 942.24 440.183 945.193 455.25 942.98C460.77 942.16 466.68 939.8 468.12 934.06C470.11 926.1 460.16 923.49 454.05 922.53Z" fill="white"/>
<path d="M618.63 920.44C622.74 949.5 656.66 947.32 674.57 933.82C674.863 933.6 675.113 933.643 675.32 933.95L684.76 948.2C684.93 948.458 684.995 948.77 684.943 949.073C684.891 949.376 684.725 949.647 684.48 949.83C674.247 957.437 662.997 961.613 650.73 962.36C577.99 966.8 579.86 857.61 646.99 861.71C678.14 863.62 692.99 890.84 689.52 919.52C689.48 919.84 689.303 920 688.99 920H619.01C618.717 920 618.59 920.147 618.63 920.44ZM619.04 903.54L667.98 903.46C668.009 903.46 668.037 903.448 668.058 903.428C668.078 903.407 668.09 903.379 668.09 903.35V903.3C668.085 900.269 667.453 897.269 666.229 894.47C665.005 891.672 663.213 889.131 660.957 886.991C658.7 884.852 656.023 883.156 653.077 882.001C650.132 880.846 646.976 880.255 643.79 880.26H643.15C636.716 880.271 630.55 882.713 626.008 887.049C621.466 891.385 618.92 897.259 618.93 903.38V903.43C618.93 903.459 618.942 903.487 618.962 903.508C618.983 903.528 619.011 903.54 619.04 903.54Z" fill="white"/>
<path d="M732.5 873.99C732.5 874.983 732.783 875.073 733.35 874.26C742.42 861.14 757.76 858.78 772.07 863.92C772.463 864.06 772.597 864.33 772.47 864.73L766.39 883.29C766.29 883.597 766.09 883.693 765.79 883.58C752.25 878.55 736.24 881.13 733.45 897.95C732.85 901.537 732.547 904.617 732.54 907.19C732.507 924.617 732.493 942.043 732.5 959.47C732.5 959.923 732.273 960.15 731.82 960.15L712.23 960.29C711.857 960.297 711.67 960.11 711.67 959.73L711.7 864.29C711.7 863.903 711.893 863.71 712.28 863.71L731.83 863.84C732.277 863.84 732.5 864.063 732.5 864.51V873.99Z" fill="white"/>
<path d="M818.01 961.22C799.09 957.55 784.42 943.48 780.36 924.56C773.52 892.7 792 864.49 825.28 861.65C839.58 860.43 853.07 863.53 864.47 872.57C864.592 872.668 864.675 872.808 864.702 872.962C864.73 873.116 864.701 873.275 864.62 873.41L855.14 889.35C854.953 889.663 854.71 889.713 854.41 889.5C838.25 877.89 813.72 876.9 803.97 897.23C800.4 904.67 799.7 914.76 802.2 922.51C809.91 946.39 836.82 947.2 854.44 934.32C854.49 934.283 854.548 934.257 854.609 934.244C854.669 934.231 854.732 934.23 854.794 934.242C854.855 934.254 854.913 934.279 854.964 934.315C855.015 934.351 855.058 934.397 855.09 934.45L864.58 950.43C864.787 950.777 864.733 951.08 864.42 951.34C851.3 961.95 834.2 964.35 818.01 961.22Z" fill="white"/>
<path d="M953.71 949.05C944.9 959.29 933.49 963.19 919.93 962.24C870.68 958.78 860.19 890.21 900.48 867.37C917.24 857.86 940.27 859.12 953.57 874.76C954.023 875.293 954.25 875.21 954.25 874.51V864.25C954.25 864.117 954.303 863.99 954.396 863.896C954.49 863.803 954.617 863.75 954.75 863.75H974.75C975.083 863.75 975.25 863.917 975.25 864.25V959.47C975.25 959.613 975.194 959.751 975.095 959.852C974.995 959.953 974.861 960.01 974.72 960.01L954.55 960.04C954.47 960.04 954.394 960.008 954.338 959.952C954.282 959.896 954.25 959.82 954.25 959.74V949.25C954.25 948.703 954.07 948.637 953.71 949.05ZM926.073 942.969C933.839 943.023 941.309 939.806 946.84 934.026C952.372 928.245 955.512 920.374 955.569 912.144C955.627 903.915 952.597 896.001 947.147 890.144C941.696 884.286 934.272 880.965 926.507 880.911C918.741 880.857 911.271 884.074 905.74 889.855C900.208 895.635 897.068 903.506 897.011 911.736C896.953 919.965 899.983 927.879 905.433 933.736C910.884 939.594 918.308 942.915 926.073 942.969Z" fill="white"/>
<path d="M1024.01 874.68C1034.33 861.47 1047.35 858.4 1063.24 863.88C1063.37 863.928 1063.49 864.026 1063.55 864.153C1063.61 864.28 1063.62 864.426 1063.58 864.56L1057.47 883.24C1057.36 883.587 1057.13 883.697 1056.79 883.57C1038.38 876.82 1023.8 884.46 1023.77 905.29C1023.75 923.09 1023.74 941.083 1023.74 959.27C1023.74 959.897 1023.43 960.21 1022.8 960.21L1003.33 960.15C1002.94 960.15 1002.75 959.96 1002.75 959.58V864.25C1002.75 864.117 1002.8 863.99 1002.9 863.896C1002.99 863.803 1003.12 863.75 1003.25 863.75H1022.67C1022.83 863.75 1022.99 863.814 1023.1 863.929C1023.22 864.043 1023.28 864.198 1023.28 864.36L1023.27 874.43C1023.27 875.23 1023.52 875.313 1024.01 874.68Z" fill="white"/>
<path d="M1214.01 955.68C1214.01 958.231 1213 960.678 1211.19 962.482C1209.39 964.287 1206.94 965.3 1204.39 965.3C1201.84 965.3 1199.39 964.287 1197.59 962.482C1195.78 960.678 1194.77 958.231 1194.77 955.68C1194.77 953.129 1195.78 950.682 1197.59 948.878C1199.39 947.074 1201.84 946.06 1204.39 946.06C1206.94 946.06 1209.39 947.074 1211.19 948.878C1213 950.682 1214.01 953.129 1214.01 955.68ZM1211.76 955.71C1211.76 953.755 1210.98 951.881 1209.6 950.499C1208.22 949.117 1206.34 948.34 1204.39 948.34C1202.44 948.34 1200.56 949.117 1199.18 950.499C1197.8 951.881 1197.02 953.755 1197.02 955.71C1197.02 957.665 1197.8 959.539 1199.18 960.921C1200.56 962.304 1202.44 963.08 1204.39 963.08C1206.34 963.08 1208.22 962.304 1209.6 960.921C1210.98 959.539 1211.76 957.665 1211.76 955.71Z" fill="black"/>
<path d="M1202.75 957.45V959.5C1202.75 959.762 1202.65 960.004 1202.46 960.173C1202.28 960.341 1202.03 960.423 1201.77 960.399C1201.5 960.375 1201.25 960.248 1201.07 960.046C1200.88 959.843 1200.78 959.582 1200.78 959.32L1200.74 951.84C1200.74 951.742 1200.76 951.645 1200.8 951.554C1200.83 951.464 1200.89 951.383 1200.96 951.316C1201.04 951.249 1201.12 951.198 1201.22 951.166C1201.31 951.134 1201.41 951.122 1201.51 951.13L1207.4 951.63C1207.52 951.639 1207.63 951.68 1207.72 951.746C1207.82 951.813 1207.89 951.904 1207.94 952.01C1209.03 954.323 1208.51 955.857 1206.39 956.61C1206 956.75 1205.94 956.98 1206.21 957.3L1208 959.43C1208.18 959.643 1208.18 959.857 1207.99 960.07C1207.6 960.503 1207.2 960.547 1206.79 960.2C1205.69 959.26 1204.69 958.223 1203.79 957.09C1203.72 956.993 1203.61 956.923 1203.5 956.888C1203.38 956.853 1203.26 956.855 1203.14 956.895C1203.03 956.935 1202.93 957.01 1202.86 957.11C1202.79 957.209 1202.75 957.328 1202.75 957.45ZM1206.48 953.932C1206.47 953.598 1206.25 953.285 1205.87 953.061C1205.5 952.838 1205 952.723 1204.48 952.741C1203.96 952.759 1203.46 952.909 1203.1 953.158C1202.74 953.407 1202.55 953.734 1202.56 954.068C1202.57 954.402 1202.79 954.715 1203.17 954.939C1203.54 955.162 1204.04 955.277 1204.56 955.259C1205.08 955.241 1205.58 955.091 1205.94 954.842C1206.3 954.593 1206.49 954.266 1206.48 953.932Z" fill="black"/>
</svg>
