<svg width="506" height="148" viewBox="0 0 506 148" fill="none" xmlns="http://www.w3.org/2000/svg">
<g clip-path="url(#clip0_1_2)">
<path d="M71.31 0H77.09C103.523 2.16 123.41 13.8133 136.75 34.96C169.31 86.57 127.64 153.29 67.3 147.63C30.29 144.15 1.78 114.31 0 76.65V71.21C2.08 31.93 32.14 2.25 71.31 0ZM82.5 26.2C82.5 26.0276 82.4315 25.8623 82.3096 25.7404C82.1877 25.6185 82.0224 25.55 81.85 25.55H66.15C65.9776 25.55 65.8123 25.6185 65.6904 25.7404C65.5685 25.8623 65.5 26.0276 65.5 26.2V64.6C65.5 64.7724 65.5685 64.9377 65.6904 65.0596C65.8123 65.1815 65.9776 65.25 66.15 65.25H81.85C82.0224 65.25 82.1877 65.1815 82.3096 65.0596C82.4315 64.9377 82.5 64.7724 82.5 64.6V26.2ZM121.63 67.89C121.61 61.45 121.78 55.32 121.53 49C121.517 48.6 121.313 48.35 120.92 48.25L103.36 43.89C103.267 43.8668 103.17 43.8654 103.077 43.886C102.983 43.9066 102.895 43.9485 102.821 44.0086C102.746 44.0687 102.687 44.1452 102.647 44.2322C102.607 44.3192 102.587 44.4143 102.59 44.51C102.97 57.9167 102.87 71.0367 102.29 83.87C101.54 100.23 92.21 112.56 75.16 113.41C54.16 114.45 45.21 97.75 45.23 79C45.25 67.54 45.2567 56.07 45.25 44.59C45.2501 44.4835 45.226 44.3784 45.1794 44.2827C45.1328 44.1869 45.065 44.1031 44.9811 44.0375C44.8972 43.972 44.7994 43.9264 44.6953 43.9043C44.5911 43.8822 44.4833 43.8841 44.38 43.91L26.58 48.36C26.4455 48.3912 26.3252 48.4672 26.2382 48.5759C26.1513 48.6846 26.1026 48.8198 26.1 48.96C25.8667 63.84 25.8467 73.5 26.04 77.94C28.32 129.78 98.23 142.68 118.14 94.9C121.87 85.94 121.66 77.35 121.63 67.89Z" fill="white"/>
<path d="M455.57 53.65C466.48 37.13 497.29 39.36 504.15 59.03C505.023 61.5367 505.46 65.12 505.46 69.78C505.46 81.0067 505.533 92.1767 505.68 103.29C505.681 103.416 505.658 103.54 505.611 103.657C505.563 103.773 505.494 103.879 505.405 103.968C505.317 104.058 505.212 104.128 505.096 104.177C504.98 104.225 504.856 104.25 504.73 104.25H489C488.923 104.25 488.847 104.235 488.776 104.205C488.705 104.175 488.64 104.132 488.586 104.077C488.532 104.022 488.49 103.957 488.461 103.885C488.433 103.814 488.419 103.737 488.42 103.66C488.573 93.66 488.557 83.8433 488.37 74.21C488.283 69.6233 487.783 66.3933 486.87 64.52C482.82 56.2 468.92 56.7 465.15 64.76C464.217 66.7533 463.75 69.8133 463.75 73.94C463.75 83.8867 463.75 93.82 463.75 103.74C463.75 103.875 463.696 104.005 463.601 104.101C463.505 104.196 463.375 104.25 463.24 104.25H447.03C446.859 104.25 446.695 104.183 446.574 104.063C446.452 103.943 446.383 103.781 446.38 103.61C446.213 92.17 446.183 80.7133 446.29 69.24C446.31 67.4867 445.687 65.6767 444.42 63.81C437.86 54.14 421.76 58.07 421.75 70.49C421.75 81.6033 421.75 92.6833 421.75 103.73C421.75 103.868 421.695 104 421.598 104.098C421.5 104.195 421.368 104.25 421.23 104.25H405.26C404.927 104.25 404.76 104.083 404.76 103.75C404.74 93.2367 404.737 82.7333 404.75 72.24C404.763 66.5333 405.243 62.2633 406.19 59.43C408.977 51.0767 414.983 45.8567 424.21 43.77C436.817 40.9233 447.193 44.22 455.34 53.66C455.354 53.678 455.372 53.6925 455.392 53.7021C455.412 53.7117 455.435 53.7162 455.458 53.7153C455.48 53.7143 455.502 53.7078 455.522 53.6965C455.541 53.6851 455.558 53.6692 455.57 53.65Z" fill="white"/>
<path d="M202.53 77.93C202.57 90.86 221.86 93.3 227.17 83.56C228.303 81.48 228.93 77.64 229.05 72.04C229.25 62.8933 229.287 53.75 229.16 44.61C229.153 44.2033 229.353 44 229.76 44H245.71C246.077 44 246.26 44.18 246.26 44.54C246.473 63.04 246.437 74.92 246.15 80.18C245.91 84.6467 244.43 88.79 241.71 92.61C228.41 111.32 194.32 109.07 186.81 86.21C185.797 83.1233 185.28 78.22 185.26 71.5C185.227 62.5 185.23 53.5 185.27 44.5C185.27 44.1667 185.437 44 185.77 44H201.99C202.33 44 202.5 44.17 202.5 44.51C202.493 55.6633 202.503 66.8033 202.53 77.93Z" fill="white"/>
<path d="M317.28 89.81L317.3 103.94C317.3 104.022 317.267 104.101 317.209 104.159C317.151 104.217 317.072 104.25 316.99 104.25H258.06C257.978 104.25 257.899 104.217 257.841 104.159C257.783 104.101 257.75 104.022 257.75 103.94V89.58C257.75 89.5368 257.758 89.494 257.776 89.4544C257.793 89.4148 257.818 89.3793 257.85 89.35L291.68 59.04C291.727 58.9979 291.759 58.9426 291.774 58.8814C291.788 58.8203 291.784 58.7562 291.761 58.6976C291.738 58.6391 291.698 58.5888 291.646 58.5535C291.594 58.5182 291.533 58.4996 291.47 58.5H259.61C259.569 58.5 259.529 58.492 259.491 58.4764C259.454 58.4608 259.42 58.438 259.391 58.4092C259.362 58.3804 259.339 58.3462 259.324 58.3086C259.308 58.271 259.3 58.2307 259.3 58.19L259.15 44.31C259.15 44.2693 259.158 44.229 259.174 44.1914C259.189 44.1538 259.212 44.1196 259.241 44.0908C259.27 44.062 259.304 44.0392 259.341 44.0236C259.379 44.008 259.419 44 259.46 44H314.94C314.981 44 315.021 44.008 315.059 44.0236C315.096 44.0392 315.13 44.062 315.159 44.0908C315.188 44.1196 315.211 44.1538 315.226 44.1914C315.242 44.229 315.25 44.2693 315.25 44.31V58.3C315.25 58.3432 315.242 58.386 315.224 58.4256C315.207 58.4652 315.182 58.5007 315.15 58.53L281.24 88.96C281.193 89.0021 281.161 89.0574 281.146 89.1186C281.132 89.1797 281.136 89.2438 281.159 89.3024C281.182 89.3609 281.222 89.4112 281.274 89.4465C281.326 89.4818 281.387 89.5004 281.45 89.5H316.97C317.052 89.5 317.131 89.5327 317.189 89.5908C317.247 89.6489 317.28 89.7278 317.28 89.81Z" fill="white"/>
<path d="M390.6 82.7C384.67 110.93 340.77 112.87 331.76 86.76C330.633 83.4933 330.05 77.55 330.01 68.93C329.977 60.7767 329.98 52.6333 330.02 44.5C330.02 44.3674 330.073 44.2402 330.166 44.1464C330.26 44.0527 330.387 44 330.52 44H346.74C347.093 44 347.27 44.1767 347.27 44.53C347.23 55.1967 347.23 65.8467 347.27 76.48C347.33 93.82 372.83 93.19 373.65 78.68C373.93 73.6933 374.043 62.31 373.99 44.53C373.99 44.3894 374.045 44.2546 374.142 44.1552C374.24 44.0558 374.372 44 374.51 44H390.74C391.06 44 391.22 44.16 391.22 44.48C391.28 52.7333 391.283 60.98 391.23 69.22C391.19 76.4133 390.98 80.9067 390.6 82.7Z" fill="white"/>
</g>
<defs>
<clipPath id="clip0_1_2">
<rect width="506" height="148" fill="white"/>
</clipPath>
</defs>
</svg>
