<svg width="160" height="46" viewBox="0 0 160 46" fill="none" xmlns="http://www.w3.org/2000/svg">
<rect width="160" height="45.4571" rx="4.57779" fill="#151515"/>
<path d="M81.0833 26.3925C78.298 26.3925 76.023 28.4976 76.023 31.3819C76.023 34.2526 78.298 36.3714 81.0833 36.3714C83.8686 36.3714 86.1437 34.2526 86.1437 31.3819C86.1437 28.4976 83.8686 26.3925 81.0833 26.3925ZM81.0833 34.4166C79.5528 34.4166 78.2429 33.1727 78.2429 31.3819C78.2429 29.5775 79.5666 28.3472 81.0833 28.3472C82.6 28.3472 83.9237 29.5775 83.9237 31.3819C83.9375 33.1727 82.6138 34.4166 81.0833 34.4166ZM70.0526 26.3925C67.2673 26.3925 64.9922 28.4976 64.9922 31.3819C64.9922 34.2526 67.2673 36.3714 70.0526 36.3714C72.8378 36.3714 75.1129 34.2526 75.1129 31.3819C75.1129 28.4976 72.8378 26.3925 70.0526 26.3925ZM70.0526 34.4166C68.5221 34.4166 67.2122 33.1727 67.2122 31.3819C67.2122 29.5775 68.5359 28.3472 70.0526 28.3472C71.5831 28.3472 72.893 29.5775 72.893 31.3819C72.893 33.1727 71.5831 34.4166 70.0526 34.4166ZM56.926 27.9235V30.0423H62.0415C61.8898 31.2316 61.49 32.1064 60.8833 32.7079C60.1387 33.4461 58.9805 34.2663 56.926 34.2663C53.7823 34.2663 51.3141 31.751 51.3141 28.6206C51.3141 25.4903 53.7823 22.975 56.926 22.975C58.622 22.975 59.8629 23.6312 60.7868 24.4924L62.2897 23.0024C61.0074 21.7857 59.3114 20.8699 56.926 20.8699C52.6102 20.8699 48.9839 24.3557 48.9839 28.6343C48.9839 32.913 52.6102 36.3988 56.926 36.3988C59.2562 36.3988 61.0074 35.6469 62.3862 34.2253C63.7926 32.8309 64.2339 30.8625 64.2339 29.2631C64.2339 28.771 64.1925 28.3199 64.1236 27.9372H56.926V27.9235ZM110.604 29.5775C110.191 28.4566 108.908 26.3925 106.289 26.3925C103.696 26.3925 101.532 28.4156 101.532 31.3819C101.532 34.1842 103.669 36.3714 106.537 36.3714C108.853 36.3714 110.177 34.9771 110.742 34.1569L109.019 33.0223C108.44 33.8562 107.667 34.403 106.537 34.403C105.406 34.403 104.606 33.8972 104.096 32.8856L110.839 30.1243L110.604 29.5775ZM103.738 31.2452C103.683 29.3178 105.241 28.3336 106.371 28.3336C107.254 28.3336 107.998 28.771 108.246 29.3998L103.738 31.2452ZM98.2637 36.0843H100.484V21.403H98.2637V36.0843ZM94.6373 27.5134H94.5546C94.0582 26.9256 93.1068 26.3925 91.9072 26.3925C89.3839 26.3925 87.0813 28.5933 87.0813 31.4093C87.0813 34.2116 89.3977 36.3851 91.9072 36.3851C93.1068 36.3851 94.0582 35.852 94.5546 35.2505H94.6373V35.975C94.6373 37.8888 93.6032 38.914 91.9486 38.914C90.5973 38.914 89.7562 37.9434 89.4115 37.1369L87.4811 37.9298C88.0327 39.2557 89.508 40.8824 91.9486 40.8824C94.5408 40.8824 96.7469 39.3651 96.7469 35.6743V26.7069H94.6511V27.5134H94.6373ZM92.1003 34.4166C90.5697 34.4166 89.2874 33.1453 89.2874 31.4093C89.2874 29.6459 90.5697 28.3609 92.1003 28.3609C93.6032 28.3609 94.789 29.6459 94.789 31.4093C94.789 33.1453 93.6032 34.4166 92.1003 34.4166ZM120.987 21.403H115.692V36.0843H117.898V30.5207H120.987C123.441 30.5207 125.84 28.7573 125.84 25.955C125.84 23.1527 123.428 21.403 120.987 21.403ZM121.042 28.4839H117.898V23.4535H121.042C122.697 23.4535 123.634 24.8068 123.634 25.9687C123.634 27.1033 122.697 28.4839 121.042 28.4839ZM134.706 26.3651C133.107 26.3651 131.452 27.0623 130.763 28.607L132.721 29.4135C133.135 28.607 133.921 28.3336 134.748 28.3336C135.892 28.3336 137.05 29.0171 137.078 30.22V30.3704C136.678 30.138 135.823 29.8099 134.775 29.8099C132.666 29.8099 130.501 30.9582 130.501 33.118C130.501 35.0865 132.238 36.3441 134.182 36.3441C135.672 36.3441 136.485 35.6879 137.009 34.9087H137.092V36.0433H139.229V30.4114C139.201 27.8278 137.244 26.3651 134.706 26.3651ZM134.431 34.4166C133.7 34.4166 132.693 34.0612 132.693 33.1727C132.693 32.0381 133.948 31.6007 135.037 31.6007C136.003 31.6007 136.471 31.8057 137.064 32.0928C136.899 33.4598 135.713 34.4166 134.431 34.4166ZM146.978 26.6932L144.441 33.0633H144.358L141.725 26.6932H139.339L143.283 35.5922L141.035 40.5407H143.338L149.419 26.6932H146.978ZM127.068 36.0843H129.274V21.403H127.068V36.0843Z" fill="white"/>
<path d="M52.8861 11.7702C52.6749 12.8964 52.4012 13.7331 52.065 14.2806H55.1853V8.90796H53.3788C53.3162 9.27552 53.2576 9.60789 53.2028 9.90506C53.1559 10.1944 53.109 10.4838 53.0621 10.7731C53.0151 11.0625 52.9565 11.3948 52.8861 11.7702ZM51.5605 15.4302V17.6355H50.3523L50.2232 15.1252V14.2806H50.5752C50.6925 14.2415 50.8098 14.1359 50.9271 13.9639C51.0444 13.784 51.1656 13.5024 51.2907 13.1192C51.4159 12.736 51.541 12.2238 51.6661 11.5825C51.76 11.1055 51.8382 10.6754 51.9007 10.2922C51.9633 9.90897 52.0258 9.52186 52.0884 9.13084C52.1588 8.732 52.237 8.27451 52.323 7.75836H56.546V14.2806H57.4493V15.1252L57.3203 17.6355H56.112V15.4302H51.5605ZM61.2619 15.5709C60.7849 15.5709 60.3391 15.4536 59.9246 15.219C59.5102 14.9766 59.1739 14.6325 58.9158 14.1867C58.6577 13.7331 58.5287 13.1896 58.5287 12.5562C58.5287 11.9149 58.6577 11.3714 58.9158 10.9256C59.1739 10.472 59.5102 10.1279 59.9246 9.89333C60.3391 9.6509 60.7849 9.52968 61.2619 9.52968C61.7468 9.52968 62.1965 9.6509 62.6109 9.89333C63.0254 10.1279 63.3617 10.472 63.6198 10.9256C63.8778 11.3714 64.0069 11.9149 64.0069 12.5562C64.0069 13.1896 63.8778 13.7331 63.6198 14.1867C63.3617 14.6325 63.0254 14.9766 62.6109 15.219C62.1965 15.4536 61.7468 15.5709 61.2619 15.5709ZM61.2619 14.4683C61.6842 14.4683 62.0166 14.2923 62.259 13.9404C62.5015 13.5885 62.6227 13.1271 62.6227 12.5562C62.6227 11.9775 62.5015 11.5122 62.259 11.1602C62.0166 10.8083 61.6842 10.6324 61.2619 10.6324C60.8396 10.6324 60.5073 10.8083 60.2648 11.1602C60.0302 11.5122 59.9129 11.9775 59.9129 12.5562C59.9129 13.1271 60.0302 13.5885 60.2648 13.9404C60.5073 14.2923 60.8396 14.4683 61.2619 14.4683ZM67.9815 15.5709C67.4576 15.5709 66.9844 15.4536 66.5621 15.219C66.1477 14.9766 65.8153 14.6325 65.565 14.1867C65.3226 13.7331 65.2014 13.1896 65.2014 12.5562C65.2014 11.9149 65.3343 11.3714 65.6002 10.9256C65.8661 10.472 66.218 10.1279 66.656 9.89333C67.1017 9.6509 67.5788 9.52968 68.0871 9.52968C68.4547 9.52968 68.7753 9.59225 69.049 9.71737C69.3227 9.8425 69.5652 9.995 69.7763 10.1749L69.1194 11.0547C68.9708 10.9217 68.8183 10.8201 68.6619 10.7497C68.5055 10.6715 68.3374 10.6324 68.1575 10.6324C67.6961 10.6324 67.3168 10.8083 67.0196 11.1602C66.7303 11.5122 66.5856 11.9775 66.5856 12.5562C66.5856 13.1271 66.7264 13.5885 67.0079 13.9404C67.2973 14.2923 67.6687 14.4683 68.1223 14.4683C68.3491 14.4683 68.5603 14.4213 68.7558 14.3275C68.9591 14.2258 69.1429 14.1085 69.3071 13.9756L69.8584 14.8671C69.5925 15.1017 69.2954 15.2777 68.9669 15.395C68.6385 15.5123 68.31 15.5709 67.9815 15.5709ZM72.3705 15.4302V10.7379H70.564V9.67045H75.5378V10.7379H73.7313V15.4302H72.3705ZM77.316 17.7998C77.1596 17.7998 77.0227 17.788 76.9054 17.7646C76.7881 17.7411 76.6747 17.7137 76.5652 17.6825L76.8116 16.6267C76.8663 16.6423 76.9289 16.658 76.9993 16.6736C77.0775 16.6971 77.1518 16.7088 77.2221 16.7088C77.5271 16.7088 77.7696 16.615 77.9494 16.4273C78.1371 16.2474 78.2779 16.0128 78.3717 15.7234L78.4773 15.3598L76.2133 9.67045H77.5858L78.5829 12.4975C78.6689 12.7478 78.751 13.0137 78.8292 13.2952C78.9153 13.5689 79.0013 13.8426 79.0873 14.1163H79.1342C79.2046 13.8505 79.275 13.5807 79.3454 13.3069C79.4236 13.0254 79.4979 12.7556 79.5683 12.4975L80.4363 9.67045H81.7384L79.6504 15.6882C79.4079 16.3373 79.1147 16.8496 78.7706 17.225C78.4265 17.6082 77.9416 17.7998 77.316 17.7998ZM82.9715 15.4302V9.67045H87.8632V15.4302H86.5141V10.7379H84.3205V15.4302H82.9715ZM89.8275 15.4302V9.67045H91.1765V11.8758H93.4757V9.67045H94.8247V15.4302H93.4757V13.0606H91.1765V15.4302H89.8275ZM99.133 15.5709C98.6559 15.5709 98.2102 15.4536 97.7957 15.219C97.3812 14.9766 97.0449 14.6325 96.7868 14.1867C96.5288 13.7331 96.3997 13.1896 96.3997 12.5562C96.3997 11.9149 96.5288 11.3714 96.7868 10.9256C97.0449 10.472 97.3812 10.1279 97.7957 9.89333C98.2102 9.6509 98.6559 9.52968 99.133 9.52968C99.6178 9.52968 100.068 9.6509 100.482 9.89333C100.896 10.1279 101.233 10.472 101.491 10.9256C101.749 11.3714 101.878 11.9149 101.878 12.5562C101.878 13.1896 101.749 13.7331 101.491 14.1867C101.233 14.6325 100.896 14.9766 100.482 15.219C100.068 15.4536 99.6178 15.5709 99.133 15.5709ZM99.133 14.4683C99.5553 14.4683 99.8876 14.2923 100.13 13.9404C100.373 13.5885 100.494 13.1271 100.494 12.5562C100.494 11.9775 100.373 11.5122 100.13 11.1602C99.8876 10.8083 99.5553 10.6324 99.133 10.6324C98.7107 10.6324 98.3783 10.8083 98.1359 11.1602C97.9013 11.5122 97.784 11.9775 97.784 12.5562C97.784 13.1271 97.9013 13.5885 98.1359 13.9404C98.3783 14.2923 98.7107 14.4683 99.133 14.4683ZM106.031 15.4302V9.67045H108.365C108.795 9.67045 109.175 9.71737 109.503 9.81122C109.839 9.90506 110.105 10.0615 110.301 10.2804C110.496 10.4994 110.594 10.7927 110.594 11.1602C110.594 11.4418 110.512 11.692 110.348 11.911C110.191 12.1221 109.953 12.2746 109.632 12.3685V12.4154C109.976 12.4936 110.262 12.6422 110.488 12.8612C110.715 13.0723 110.829 13.3773 110.829 13.7762C110.829 14.1594 110.723 14.4761 110.512 14.7263C110.309 14.9688 110.031 15.1486 109.679 15.2659C109.327 15.3754 108.928 15.4302 108.483 15.4302H106.031ZM107.356 12.0048H108.236C108.612 12.0048 108.881 11.9423 109.046 11.8172C109.21 11.692 109.292 11.52 109.292 11.301C109.292 11.0742 109.214 10.8983 109.057 10.7731C108.901 10.648 108.639 10.5854 108.271 10.5854H107.356V12.0048ZM107.356 14.5152H108.389C108.78 14.5152 109.061 14.4409 109.233 14.2923C109.413 14.1437 109.503 13.9443 109.503 13.694C109.503 13.4594 109.405 13.2717 109.21 13.131C109.022 12.9902 108.733 12.9198 108.342 12.9198H107.356V14.5152Z" fill="white"/>
<path fill-rule="evenodd" clip-rule="evenodd" d="M12.2277 8.34474L26.9743 22.7941L12.2616 37.2103C11.9794 36.8461 11.8136 36.3315 11.8136 35.686V9.82812C11.8136 9.20891 11.9662 8.70008 12.2277 8.34474ZM12.7757 7.87421C13.3147 7.61292 14.0306 7.67191 14.821 8.11436L32.0188 17.7437L32.0314 17.7312L32.0989 17.7728L27.4884 22.2904L12.7757 7.87421ZM32.7511 18.1412L28.0025 22.7941L32.6768 27.3742L37.9339 24.4235C39.5888 23.4986 39.5888 21.9751 37.9339 21.0502L32.7511 18.1412ZM32.0313 27.7492L27.4884 23.2978L12.8403 37.6507C13.3729 37.8837 14.0682 37.8147 14.8332 37.3864L32.0313 27.7492Z" fill="white"/>
</svg>
