<svg width="160" height="46" viewBox="0 0 160 46" fill="none" xmlns="http://www.w3.org/2000/svg">
<rect width="160" height="45.1794" rx="4.57425" fill="#151515"/>
<path d="M53.669 15.5506C53.1454 15.5506 52.6492 15.4646 52.1803 15.2927C51.7115 15.1208 51.2778 14.8434 50.8793 14.4605L51.6177 13.5345C51.9381 13.8314 52.2585 14.0463 52.5789 14.1792C52.9071 14.3042 53.2665 14.3667 53.6573 14.3667C54.1027 14.3667 54.4739 14.2573 54.7708 14.0385C55.0756 13.8197 55.2279 13.5071 55.2279 13.1008C55.2279 12.6944 55.0795 12.3975 54.7825 12.2099C54.4934 12.0224 54.0675 11.9286 53.5049 11.9286H52.5554V10.9088H53.2704C53.8331 10.9088 54.2355 10.8151 54.4778 10.6275C54.7278 10.44 54.8529 10.1704 54.8529 9.81875C54.8529 9.4671 54.7278 9.20923 54.4778 9.04513C54.2355 8.87321 53.9308 8.78725 53.5635 8.78725C53.2353 8.78725 52.9344 8.84586 52.6609 8.96308C52.3874 9.07248 52.1256 9.22876 51.8756 9.43194L51.184 8.52938C51.4888 8.24025 51.8482 8.01363 52.2624 7.84953C52.6844 7.68543 53.1298 7.60338 53.5986 7.60338C54.4035 7.60338 55.0326 7.78311 55.4858 8.14257C55.9469 8.50203 56.1774 8.99433 56.1774 9.61948C56.1774 10.0024 56.0875 10.3462 55.9078 10.651C55.7281 10.9479 55.4663 11.1667 55.1224 11.3074V11.3543C55.5366 11.448 55.8804 11.6551 56.1539 11.9755C56.4274 12.2959 56.5642 12.7022 56.5642 13.1945C56.5642 13.7025 56.4353 14.1323 56.1774 14.4839C55.9195 14.8356 55.5718 15.1012 55.1342 15.281C54.6966 15.4607 54.2082 15.5506 53.669 15.5506ZM59.4664 15.5506C58.9662 15.5506 58.556 15.3943 58.2356 15.0817C57.923 14.7691 57.7667 14.3628 57.7667 13.8627C57.7667 13.2453 58.0363 12.7687 58.5755 12.4326C59.1147 12.0888 59.9743 11.8544 61.1543 11.7294C61.1465 11.4246 61.0644 11.1628 60.9081 10.944C60.7596 10.7174 60.49 10.6041 60.0993 10.6041C59.818 10.6041 59.5406 10.6588 59.2671 10.7682C59.0014 10.8776 58.7396 11.0104 58.4818 11.1667L57.9895 10.2642C58.3098 10.061 58.6693 9.88517 59.0678 9.7367C59.4742 9.58822 59.904 9.51399 60.3572 9.51399C61.0761 9.51399 61.6114 9.72888 61.9631 10.1587C62.3225 10.5806 62.5022 11.1941 62.5022 11.9989V15.4099H61.3887L61.2949 14.777H61.248C60.9902 14.9958 60.7128 15.1794 60.4158 15.3279C60.1267 15.4763 59.8102 15.5506 59.4664 15.5506ZM59.9001 14.4956C60.1345 14.4956 60.3455 14.4409 60.533 14.3315C60.7284 14.2143 60.9355 14.058 61.1543 13.8627V12.5733C60.3728 12.6749 59.8297 12.8273 59.525 13.0304C59.2202 13.2258 59.0678 13.468 59.0678 13.7572C59.0678 14.0151 59.146 14.2026 59.3023 14.3198C59.4586 14.437 59.6578 14.4956 59.9001 14.4956ZM64.3498 15.4099V9.65465H68.1359V10.7213H65.6978V15.4099H64.3498ZM69.5293 17.6839V9.65465H70.6428L70.7366 10.2642H70.7835C71.0257 10.061 71.2953 9.88517 71.5923 9.7367C71.897 9.58822 72.2057 9.51399 72.5183 9.51399C73.2372 9.51399 73.792 9.77968 74.1827 10.3111C74.5813 10.8424 74.7805 11.5535 74.7805 12.4444C74.7805 13.1008 74.6633 13.6634 74.4289 14.1323C74.1945 14.5933 73.8897 14.945 73.5146 15.1872C73.1473 15.4294 72.7488 15.5506 72.319 15.5506C72.069 15.5506 71.8189 15.4959 71.5688 15.3865C71.3188 15.2693 71.0765 15.113 70.8421 14.9176L70.8773 15.8788V17.6839H69.5293ZM72.0377 14.437C72.4206 14.437 72.741 14.269 72.9989 13.933C73.2567 13.597 73.3857 13.1047 73.3857 12.4561C73.3857 11.8778 73.288 11.4285 73.0926 11.1081C72.8973 10.7877 72.5808 10.6275 72.1432 10.6275C71.7368 10.6275 71.3149 10.8424 70.8773 11.2722V13.9564C71.0883 14.1284 71.2914 14.2534 71.4868 14.3315C71.6821 14.4019 71.8658 14.437 72.0377 14.437ZM76.6981 17.7777C76.5418 17.7777 76.4051 17.7659 76.2878 17.7425C76.1706 17.7191 76.0573 17.6917 75.9479 17.6604L76.1941 16.6055C76.2488 16.6211 76.3113 16.6368 76.3816 16.6524C76.4598 16.6758 76.534 16.6876 76.6043 16.6876C76.9091 16.6876 77.1513 16.5938 77.3311 16.4062C77.5186 16.2265 77.6593 15.9921 77.753 15.703L77.8585 15.3396L75.5963 9.65465H76.9677L77.964 12.4795C78.05 12.7296 78.132 12.9953 78.2102 13.2766C78.2961 13.5501 78.3821 13.8236 78.468 14.0971H78.5149C78.5853 13.8314 78.6556 13.5618 78.7259 13.2883C78.8041 13.007 78.8783 12.7374 78.9486 12.4795L79.816 9.65465H81.1171L79.0307 15.6678C78.7884 16.3164 78.4954 16.8282 78.1516 17.2033C77.8077 17.5862 77.3232 17.7777 76.6981 17.7777ZM83.8892 15.5506C83.4984 15.5506 83.1234 15.5037 82.7639 15.4099C82.4044 15.3083 82.045 15.1208 81.6855 14.8473L82.2364 13.9799C82.4865 14.1752 82.7444 14.312 83.01 14.3901C83.2757 14.4683 83.5297 14.5074 83.7719 14.5074C84.1158 14.5074 84.4088 14.4331 84.6511 14.2846C84.8933 14.1362 85.0144 13.9291 85.0144 13.6634C85.0144 13.1555 84.6237 12.9015 83.8423 12.9015H82.9866V11.9872H83.7251C84.0923 11.9872 84.3658 11.9247 84.5456 11.7997C84.7253 11.6668 84.8152 11.4871 84.8152 11.2605C84.8152 11.0261 84.7214 10.8502 84.5338 10.733C84.3541 10.6158 84.108 10.5572 83.7954 10.5572C83.5063 10.5572 83.2445 10.5924 83.01 10.6627C82.7834 10.733 82.5568 10.8463 82.3302 11.0026L81.8027 10.1235C82.0997 9.92033 82.4162 9.76795 82.7522 9.66637C83.096 9.56478 83.4711 9.51399 83.8774 9.51399C84.276 9.51399 84.6432 9.5726 84.9793 9.68981C85.3231 9.79921 85.5966 9.97113 85.7998 10.2056C86.0108 10.44 86.1163 10.7408 86.1163 11.1081C86.1163 11.366 86.0381 11.6121 85.8818 11.8466C85.7255 12.0732 85.4911 12.2412 85.1785 12.3506V12.3975C85.5224 12.4834 85.8037 12.6397 86.0225 12.8663C86.2413 13.0851 86.3507 13.3938 86.3507 13.7923C86.3507 14.1674 86.2335 14.4878 85.999 14.7535C85.7646 15.0114 85.4598 15.2106 85.0848 15.3513C84.7097 15.4841 84.3111 15.5506 83.8892 15.5506ZM87.8606 15.4099V9.65465H89.1735V11.6356C89.1735 11.9325 89.1578 12.2646 89.1266 12.6319C89.1031 12.9914 89.0797 13.3547 89.0562 13.722H89.0914C89.193 13.5423 89.3141 13.3391 89.4548 13.1125C89.5954 12.8781 89.7126 12.6749 89.8064 12.503L91.635 9.65465H92.8775V15.4099H91.5646V13.429C91.5646 13.132 91.5764 12.7999 91.5998 12.4326C91.6311 12.0654 91.6623 11.702 91.6936 11.3425H91.6467C91.5451 11.5145 91.424 11.7176 91.2833 11.9521C91.1505 12.1865 91.0333 12.3897 90.9317 12.5616L89.1031 15.4099H87.8606ZM96.08 15.4099V10.7213H94.2749V9.65465H99.2448V10.7213H97.4397V15.4099H96.08ZM102.913 15.5506C102.382 15.5506 101.901 15.4334 101.471 15.1989C101.042 14.9567 100.702 14.6128 100.452 14.1674C100.202 13.7142 100.077 13.1711 100.077 12.5381C100.077 11.913 100.202 11.3738 100.452 10.9206C100.71 10.4673 101.042 10.1196 101.448 9.87735C101.854 9.63511 102.28 9.51399 102.726 9.51399C103.249 9.51399 103.687 9.6312 104.038 9.86563C104.39 10.0922 104.656 10.4126 104.836 10.8268C105.015 11.2331 105.105 11.7059 105.105 12.2451C105.105 12.5264 105.086 12.7452 105.047 12.9015H101.389C101.452 13.4094 101.636 13.8041 101.94 14.0854C102.245 14.3667 102.628 14.5074 103.089 14.5074C103.339 14.5074 103.57 14.4722 103.781 14.4019C103.999 14.3237 104.214 14.2182 104.425 14.0854L104.882 14.9293C104.609 15.1091 104.304 15.2575 103.968 15.3747C103.632 15.492 103.28 15.5506 102.913 15.5506ZM101.378 11.9872H103.933C103.933 11.5418 103.835 11.1941 103.64 10.944C103.445 10.6861 103.152 10.5572 102.761 10.5572C102.425 10.5572 102.124 10.6822 101.858 10.9323C101.6 11.1745 101.44 11.5262 101.378 11.9872ZM109.208 15.4099V9.65465H111.541C111.97 9.65465 112.349 9.70153 112.678 9.7953C113.014 9.88908 113.279 10.0454 113.475 10.2642C113.67 10.483 113.768 10.776 113.768 11.1433C113.768 11.4246 113.686 11.6747 113.522 11.8935C113.365 12.1044 113.127 12.2568 112.807 12.3506V12.3975C113.15 12.4756 113.436 12.6241 113.662 12.8429C113.889 13.0539 114.002 13.3586 114.002 13.7572C114.002 14.1401 113.897 14.4566 113.686 14.7066C113.482 14.9489 113.205 15.1286 112.853 15.2458C112.502 15.3552 112.103 15.4099 111.658 15.4099H109.208ZM110.533 11.9872H111.412C111.787 11.9872 112.056 11.9247 112.22 11.7997C112.385 11.6747 112.467 11.5027 112.467 11.2839C112.467 11.0573 112.388 10.8815 112.232 10.7565C112.076 10.6314 111.814 10.5689 111.447 10.5689H110.533V11.9872ZM110.533 14.4956H111.564C111.955 14.4956 112.236 14.4214 112.408 14.2729C112.588 14.1245 112.678 13.9252 112.678 13.6751C112.678 13.4407 112.58 13.2532 112.385 13.1125C112.197 12.9718 111.908 12.9015 111.517 12.9015H110.533V14.4956Z" fill="white"/>
<path d="M35.1739 22.335C35.1391 18.5344 38.3441 16.6854 38.4907 16.5993C36.6755 14.0015 33.8621 13.6466 32.8734 13.6183C30.5105 13.3742 28.2185 15.0062 27.0148 15.0062C25.787 15.0062 23.9335 13.6419 21.9357 13.6819C19.365 13.7209 16.96 15.1819 15.641 17.4507C12.9188 22.0768 14.949 28.8749 17.557 32.6142C18.8616 34.4455 20.3861 36.4903 22.3814 36.4183C24.3335 36.3393 25.0627 35.1967 27.4184 35.1967C29.7525 35.1967 30.4372 36.4183 32.4722 36.3723C34.5673 36.3393 35.8863 34.5328 37.1452 32.6849C38.6528 30.586 39.2583 28.5188 39.2823 28.4127C39.2331 28.3962 35.2136 26.8903 35.1739 22.335Z" fill="white"/>
<path d="M31.3288 11.1585C32.3787 9.86959 33.097 8.1161 32.8976 6.33667C31.378 6.40271 29.4776 7.36848 28.3832 8.62906C27.415 9.73988 26.55 11.5606 26.7735 13.2728C28.4805 13.3978 30.2332 12.4273 31.3288 11.1585Z" fill="white"/>
<path d="M63.4297 36.1556H60.7016L59.2072 31.5461H54.0128L52.5893 36.1556H49.9332L55.0795 20.4626H58.2582L63.4297 36.1556ZM58.7567 29.6122L57.4052 25.5144C57.2623 25.0958 56.9944 24.1099 56.5992 22.5581H56.5511C56.3938 23.2255 56.1403 24.2114 55.7919 25.5144L54.4645 29.6122H58.7567Z" fill="white"/>
<path d="M76.6642 30.3587C76.6642 32.2832 76.1345 33.8043 75.0749 34.9211C74.1259 35.9151 72.9474 36.4116 71.5407 36.4116C70.0223 36.4116 68.9315 35.8762 68.2672 34.8055H68.2192V40.7664H65.658V28.5651C65.658 27.3552 65.6256 26.1135 65.5631 24.84H67.8155L67.9585 26.6336H68.0065C68.8606 25.2822 70.1568 24.6077 71.8963 24.6077C73.2562 24.6077 74.3914 25.1348 75.2996 26.1902C76.2101 27.2467 76.6642 28.6359 76.6642 30.3587ZM74.055 30.4507C74.055 29.3493 73.8028 28.4413 73.2958 27.7267C72.742 26.9814 71.9984 26.6088 71.0662 26.6088C70.4343 26.6088 69.8601 26.8163 69.3472 27.2255C68.833 27.6382 68.4967 28.1771 68.3393 28.8446C68.26 29.1559 68.2204 29.4106 68.2204 29.6111V31.4978C68.2204 32.3209 68.4774 33.0154 68.9916 33.5826C69.5057 34.1498 70.1737 34.4329 70.9953 34.4329C71.96 34.4329 72.7108 34.0673 73.2478 33.3385C73.7859 32.6086 74.055 31.6464 74.055 30.4507Z" fill="white"/>
<path d="M89.9228 30.3587C89.9228 32.2832 89.393 33.8043 88.3323 34.9211C87.3845 35.9151 86.206 36.4116 84.7993 36.4116C83.2809 36.4116 82.1901 35.8762 81.527 34.8055H81.4789V40.7664H78.9178V28.5651C78.9178 27.3552 78.8853 26.1135 78.8229 24.84H81.0753L81.2182 26.6336H81.2663C82.1192 25.2822 83.4154 24.6077 85.1561 24.6077C86.5147 24.6077 87.6499 25.1348 88.5605 26.1902C89.4675 27.2467 89.9228 28.6359 89.9228 30.3587ZM87.3136 30.4507C87.3136 29.3493 87.0601 28.4413 86.5532 27.7267C85.9994 26.9814 85.2582 26.6088 84.3248 26.6088C83.6917 26.6088 83.1187 26.8163 82.6045 27.2255C82.0904 27.6382 81.7552 28.1771 81.5978 28.8446C81.5198 29.1559 81.4789 29.4106 81.4789 29.6111V31.4978C81.4789 32.3209 81.736 33.0154 82.2477 33.5826C82.7619 34.1487 83.4298 34.4329 84.2539 34.4329C85.2185 34.4329 85.9693 34.0673 86.5063 33.3385C87.0445 32.6086 87.3136 31.6464 87.3136 30.4507Z" fill="white"/>
<path d="M104.746 31.7545C104.746 33.0894 104.274 34.1754 103.326 35.0138C102.284 35.9301 100.834 36.3876 98.9711 36.3876C97.2509 36.3876 95.8718 36.0622 94.8279 35.4101L95.4213 33.3146C96.5457 33.982 97.7795 34.3169 99.1237 34.3169C100.088 34.3169 100.839 34.1023 101.379 33.6754C101.915 33.2486 102.183 32.6755 102.183 31.9609C102.183 31.3241 101.962 30.7875 101.519 30.3524C101.078 29.9173 100.342 29.5128 99.3135 29.139C96.5145 28.1143 95.1162 26.6131 95.1162 24.6391C95.1162 23.3491 95.6063 22.2913 96.5878 21.4682C97.5656 20.644 98.8702 20.2324 100.502 20.2324C101.956 20.2324 103.165 20.4812 104.129 20.9777L103.489 23.0272C102.588 22.546 101.57 22.3055 100.429 22.3055C99.5285 22.3055 98.8246 22.5236 98.32 22.9576C97.8936 23.3455 97.6797 23.8184 97.6797 24.3785C97.6797 24.9988 97.9236 25.5118 98.4137 25.915C98.8402 26.2877 99.615 26.691 100.739 27.1261C102.115 27.6697 103.125 28.3053 103.775 29.0341C104.423 29.7605 104.746 30.6696 104.746 31.7545Z" fill="white"/>
<path d="M113.216 26.7265H110.393V32.2204C110.393 33.6178 110.89 34.3159 111.887 34.3159C112.345 34.3159 112.724 34.277 113.025 34.1992L113.096 36.1083C112.591 36.2934 111.927 36.3866 111.104 36.3866C110.092 36.3866 109.302 36.0835 108.731 35.4786C108.163 34.8725 107.877 33.856 107.877 32.428V26.7241H106.195V24.8374H107.877V22.7655L110.393 22.0203V24.8374H113.216V26.7265Z" fill="white"/>
<path d="M125.952 30.4047C125.952 32.1441 125.445 33.5721 124.434 34.6888C123.373 35.8385 121.965 36.4116 120.21 36.4116C118.518 36.4116 117.172 35.8609 116.168 34.7595C115.163 33.6582 114.661 32.2679 114.661 30.5922C114.661 28.8387 115.178 27.4024 116.214 26.2857C117.249 25.1678 118.645 24.6089 120.4 24.6089C122.091 24.6089 123.452 25.1596 124.479 26.2621C125.462 27.3317 125.952 28.7125 125.952 30.4047ZM123.295 30.4861C123.295 29.4425 123.068 28.5475 122.608 27.801C122.071 26.8977 121.303 26.4473 120.308 26.4473C119.279 26.4473 118.497 26.8989 117.96 27.801C117.5 28.5486 117.273 29.4578 117.273 30.5332C117.273 31.5769 117.5 32.4719 117.96 33.2171C118.514 34.1204 119.287 34.5709 120.286 34.5709C121.263 34.5709 122.031 34.111 122.585 33.1936C123.057 32.433 123.295 31.5285 123.295 30.4861Z" fill="white"/>
<path d="M134.277 27.051C134.024 27.005 133.753 26.9814 133.47 26.9814C132.569 26.9814 131.872 27.3151 131.382 27.9837C130.956 28.5734 130.742 29.3186 130.742 30.2184V36.1557H128.182L128.206 28.4035C128.206 27.0993 128.173 25.9119 128.11 24.8411H130.341L130.434 27.0062H130.505C130.775 26.2621 131.202 25.6631 131.786 25.2138C132.356 24.8093 132.973 24.6077 133.637 24.6077C133.874 24.6077 134.087 24.6242 134.277 24.6537V27.051Z" fill="white"/>
<path d="M145.732 29.9628C145.732 30.4133 145.702 30.793 145.638 31.1031H137.955C137.985 32.221 138.356 33.0759 139.069 33.6655C139.717 34.1926 140.554 34.4568 141.583 34.4568C142.72 34.4568 143.758 34.2787 144.691 33.9214L145.093 35.6667C144.002 36.1336 142.714 36.3659 141.228 36.3659C139.441 36.3659 138.038 35.8494 137.016 34.8176C135.998 33.7858 135.487 32.4002 135.487 30.6621C135.487 28.9558 135.962 27.5348 136.912 26.4016C137.907 25.1917 139.251 24.5868 140.942 24.5868C142.604 24.5868 143.861 25.1917 144.715 26.4016C145.392 27.3627 145.732 28.5513 145.732 29.9628ZM143.29 29.3107C143.306 28.5654 143.139 27.9216 142.792 27.378C142.349 26.6787 141.668 26.3297 140.751 26.3297C139.914 26.3297 139.233 26.6705 138.713 27.3544C138.286 27.898 138.033 28.5501 137.955 29.3095H143.29V29.3107Z" fill="white"/>
</svg>
