<svg width="1141" height="258" viewBox="0 0 1141 258" fill="none" xmlns="http://www.w3.org/2000/svg">
<path d="M1139.82 0.0566406C1140 0.0567306 1140.17 0.1242 1140.3 0.244141C1140.43 0.36411 1140.5 0.526664 1140.5 0.696289L1140.44 97.0049C1140.3 97.0029 1140.15 97 1140 97C1122.33 97 1108 111.327 1108 129C1108 146.673 1122.33 161 1140 161C1140.17 161 1140.33 160.996 1140.49 160.993L1140.44 256.282C1140.44 256.457 1140.37 256.625 1140.23 256.748C1140.1 256.871 1139.92 256.941 1139.73 256.941H830.49C830.309 256.942 830.132 256.89 829.983 256.792C829.835 256.694 829.722 256.556 829.66 256.396C829.047 254.808 828.307 253.519 827.44 252.527C826.487 251.448 824.86 250.726 822.56 250.362C822.415 250.342 822.283 250.276 822.188 250.178C822.092 250.079 822.04 249.955 822.04 249.826V245.007C822.04 244.877 822.09 244.75 822.181 244.647C822.272 244.545 822.398 244.472 822.54 244.442C825.127 243.922 827.076 242.745 828.39 240.913C829.696 239.081 830.047 237.129 829.44 235.059C828.634 232.317 826.347 230.334 822.58 229.11C822.428 229.061 822.295 228.972 822.202 228.855C822.109 228.739 822.059 228.601 822.06 228.461L822.12 223.699C822.122 223.574 822.179 223.452 822.281 223.353C822.383 223.253 822.524 223.183 822.68 223.153C825.26 222.695 827.187 221.544 828.46 219.699C829.713 217.898 830.007 215.978 829.34 213.938C828.466 211.26 826.197 209.452 822.53 208.518C822.378 208.48 822.243 208.397 822.147 208.281C822.052 208.166 822 208.024 822 207.878V204C822 203.096 822.73 202.372 824.19 201.826C827.424 200.603 829.22 198.578 829.58 195.755C829.833 193.728 829.344 191.956 828.11 190.438C826.837 188.869 824.997 187.89 822.59 187.501C822.425 187.474 822.276 187.395 822.168 187.276C822.06 187.158 822 187.007 822 186.852V182.202C822.001 181.998 822.077 181.799 822.215 181.642C822.353 181.484 822.546 181.376 822.76 181.337C825.286 180.885 827.184 179.774 828.45 178.005C829.657 176.311 830.026 174.419 829.56 172.329C828.866 169.249 826.54 167.247 822.58 166.324C822.427 166.29 822.291 166.212 822.194 166.104C822.098 165.997 822.047 165.865 822.05 165.731L822.13 160.875C822.13 160.75 822.185 160.628 822.285 160.528C822.385 160.429 822.525 160.358 822.68 160.329C824.386 160.003 825.86 159.332 827.1 158.315C828.24 157.381 828.994 156.107 829.36 154.494C830.454 149.719 828.223 146.67 822.67 145.346C822.51 145.308 822.369 145.231 822.269 145.127C822.168 145.022 822.116 144.897 822.12 144.771L822.17 139.529C822.169 139.403 822.225 139.277 822.328 139.171C822.431 139.065 822.577 138.987 822.74 138.946C827.553 137.729 829.837 135.021 829.59 130.823C829.483 128.96 828.813 127.429 827.58 126.23C826.253 124.95 824.58 124.135 822.56 123.783C822.415 123.756 822.284 123.687 822.189 123.59C822.095 123.492 822.042 123.371 822.04 123.247L822 118.428C822 118.291 822.05 118.158 822.145 118.049C822.239 117.94 822.372 117.862 822.521 117.826C823.987 117.475 825.24 116.975 826.28 116.329C827.347 115.664 828.21 114.723 828.87 113.506C830.623 110.262 829.936 107.231 826.81 104.414C825.983 103.668 824.606 103.109 822.68 102.739C822.526 102.71 822.389 102.637 822.289 102.534C822.189 102.432 822.133 102.304 822.13 102.174L822.03 97.2334C822.028 97.1072 822.08 96.9826 822.175 96.8828C822.27 96.7832 822.403 96.7143 822.55 96.6875C825.17 96.2107 827.13 95.0401 828.43 93.1768C829.676 91.3822 829.974 89.421 829.32 87.2939C828.447 84.4579 826.233 82.7011 822.68 82.0234C822.522 81.9947 822.38 81.9235 822.278 81.8223C822.176 81.7209 822.12 81.5952 822.12 81.4678V76.1689C822.121 76.0441 822.177 75.9212 822.278 75.8203C822.38 75.7194 822.522 75.6466 822.68 75.6143C824.4 75.2755 825.757 74.6984 826.75 73.8828C830.45 70.846 830.93 67.4918 828.19 63.8213C827.037 62.2778 825.2 61.2859 822.68 60.8467C822.523 60.8179 822.38 60.748 822.278 60.6484C822.176 60.5489 822.121 60.4256 822.12 60.3008V55.002C822.119 54.8758 822.174 54.752 822.274 54.6523C822.375 54.5525 822.515 54.4827 822.67 54.4561C824.716 54.1047 826.383 53.2646 827.67 51.9346C828.863 50.7048 829.49 49.1575 829.55 47.2939C829.67 43.3475 827.397 40.8686 822.73 39.8584C822.571 39.8231 822.427 39.7487 822.324 39.6465C822.221 39.5442 822.163 39.4201 822.16 39.2939L822.11 34.2871C822.109 34.1631 822.165 34.0397 822.269 33.9385C822.372 33.8373 822.518 33.7642 822.68 33.7314C824.386 33.4052 825.66 32.9067 826.5 32.2354C829.66 29.7193 830.553 26.8266 829.18 23.5576C828.593 22.1647 827.72 21.0858 826.56 20.3203C825.433 19.58 824.063 19.0185 822.45 18.6357C822.322 18.6062 822.207 18.538 822.125 18.4424C822.043 18.3468 822 18.2289 822 18.1084L822.04 13.4775C822.043 13.3334 822.089 13.1925 822.172 13.0713C822.255 12.9502 822.372 12.8535 822.51 12.791C823.003 12.5777 823.51 12.3982 824.03 12.2539C824.67 12.072 825.167 11.8804 825.521 11.6797C829.913 9.18246 830.793 5.44612 828.16 0.470703C828.135 0.420941 828.124 0.365542 828.127 0.310547C828.13 0.255823 828.148 0.202871 828.179 0.15625C828.21 0.109437 828.253 0.0701831 828.304 0.0429688C828.354 0.0159035 828.411 0.00101352 828.47 0L1139.82 0.0566406Z" fill="black"/>
<path d="M923.776 68.0057H887V44H995.728V68.0057H958.952V212.04H923.776V68.0057Z" fill="white"/>
<path d="M1004.83 213C998.438 213 993.002 212.68 988.525 212.04V188.034C991.936 188.674 995.773 188.994 1000.04 188.994C1007.07 188.994 1012.3 187.714 1015.71 185.153C1019.12 182.433 1020.82 178.352 1020.82 172.91V44H1056V172.19C1056 185.954 1051.74 196.196 1043.21 202.918C1034.89 209.639 1022.1 213 1004.83 213Z" fill="white"/>
<path d="M806.675 0C808.046 2.45582e-06 809.315 0.17598 810.482 0.527344C811.482 0.834781 812.676 1.21777 814.064 1.67578C814.3 1.75106 814.5 1.86783 814.64 2.01172C814.779 2.15549 814.851 2.31962 814.848 2.48438L814.795 6.89844C814.794 7.02074 814.721 7.14146 814.588 7.23926C814.455 7.3371 814.269 7.40685 814.064 7.43555C809.563 8.05048 806.631 9.66591 805.269 12.2822C804.145 14.4657 804.371 16.5495 805.945 18.5322C807.59 20.5963 810.288 21.9014 814.038 22.4473C814.25 22.476 814.442 22.5471 814.58 22.6484C814.718 22.7497 814.794 22.8747 814.795 23.002L814.86 27.6045C814.864 27.7781 814.78 27.9505 814.62 28.0947C814.46 28.239 814.232 28.3472 813.972 28.4043C810.62 29.1509 808.126 30.312 806.489 31.8867C804.729 33.5808 804.278 35.4731 805.136 37.5625C806.233 40.2542 809.249 42.1835 814.185 43.3506C814.388 43.3972 814.565 43.4845 814.689 43.5996C814.814 43.7148 814.878 43.8521 814.874 43.9902L814.781 49.0068C814.782 49.1318 814.711 49.2549 814.58 49.3545C814.449 49.4541 814.267 49.5241 814.064 49.5527C809.138 50.2492 806.148 52.1035 805.096 55.1152C804.353 57.2296 804.791 59.1496 806.409 60.875C808.107 62.6883 810.655 63.8397 814.052 64.3291C814.267 64.361 814.461 64.4335 814.599 64.5332C814.737 64.6328 814.811 64.7537 814.808 64.875L814.675 69.8262C814.67 69.9535 814.592 70.0794 814.453 70.1846C814.314 70.2898 814.122 70.3685 813.905 70.4092C806.219 71.8335 803.385 75.0496 805.401 80.0566C806.038 81.6251 807.068 82.8017 808.492 83.5859C809.925 84.3765 811.76 84.9975 813.998 85.4492C814.245 85.5007 814.463 85.6023 814.616 85.7383C814.769 85.8742 814.851 86.0373 814.848 86.2021L814.795 90.8799C814.795 91.0073 814.721 91.133 814.585 91.2344C814.449 91.3357 814.261 91.4068 814.052 91.4355C810.142 91.9689 807.396 93.3212 805.812 95.4922C804.291 97.5626 804.18 99.6862 805.48 101.863C806.94 104.31 809.797 105.839 814.052 106.447C814.258 106.476 814.443 106.547 814.576 106.648C814.709 106.75 814.782 106.875 814.781 107.002L814.888 112.142C814.891 112.333 814.79 112.52 814.603 112.668C814.415 112.816 814.154 112.916 813.866 112.95C810.903 113.314 808.576 114.249 806.887 115.755C805.303 117.167 804.64 118.861 804.896 120.838C805.356 124.389 808.413 126.573 814.064 127.389C814.267 127.418 814.45 127.488 814.582 127.587C814.714 127.686 814.79 127.809 814.795 127.935L814.848 132.932C814.852 133.105 814.771 133.278 814.617 133.426C814.463 133.574 814.242 133.69 813.985 133.76C808.511 135.19 805.485 137.449 804.91 140.536C804.556 142.45 805.251 144.16 806.993 145.666C808.744 147.172 811.102 148.138 814.064 148.564C814.265 148.593 814.447 148.664 814.577 148.765C814.708 148.866 814.78 148.992 814.781 149.12L814.888 154.287C814.892 154.452 814.809 154.615 814.651 154.747C814.494 154.879 814.273 154.972 814.025 155.012C810.912 155.526 808.528 156.524 806.874 158.005C805.238 159.473 804.636 161.227 805.069 163.266C805.75 166.472 808.692 168.433 813.893 169.148C814.108 169.181 814.302 169.252 814.441 169.352C814.581 169.451 814.659 169.572 814.662 169.694L814.821 175.426C814.824 175.574 814.748 175.721 814.604 175.844C814.46 175.966 814.256 176.058 814.025 176.104C811 176.693 808.656 177.676 806.993 179.05C805.251 180.493 804.579 182.199 804.977 184.169C805.587 187.181 808.501 189.214 813.72 190.269C814.076 190.342 814.389 190.496 814.611 190.706C814.834 190.917 814.954 191.173 814.954 191.436V196.367C814.954 196.595 814.844 196.817 814.641 196.993C814.438 197.17 814.154 197.291 813.839 197.337C810.761 197.776 808.413 198.729 806.794 200.197C805.202 201.634 804.61 203.338 805.017 205.309C805.662 208.452 808.678 210.472 814.064 211.369C814.319 211.412 814.546 211.514 814.708 211.657C814.87 211.801 814.957 211.978 814.954 212.16L814.9 217.12C814.897 217.294 814.813 217.464 814.66 217.603C814.507 217.742 814.294 217.843 814.052 217.892C808.542 219.034 805.499 221.17 804.924 224.301C804.561 226.284 805.189 228.022 806.808 229.516C808.426 231.015 810.788 232.006 813.893 232.489C814.171 232.535 814.419 232.641 814.596 232.79C814.772 232.939 814.865 233.123 814.86 233.309L814.781 238.419C814.781 238.544 814.709 238.667 814.576 238.768C814.443 238.869 814.258 238.942 814.052 238.975C809.859 239.608 807.024 241.136 805.547 243.558C804.185 245.779 804.296 247.894 805.879 249.901C807.462 251.89 810.173 253.264 814.012 254.023C814.212 254.064 814.394 254.141 814.536 254.247C814.679 254.353 814.778 254.484 814.821 254.626C815.343 256.32 814.724 257.117 812.964 257.017C812.124 256.966 811.681 256.941 811.637 256.941H1.1543C0.848176 256.941 0.554352 256.855 0.337891 256.701C0.121566 256.548 0 256.339 0 256.122V161C17.4937 161 31.7054 146.962 31.9922 129.537C32.1091 128.397 32.0686 127.251 31.8672 126.098C30.4005 109.785 16.6947 97 0 97V0.818359C0.000171339 0.601471 0.121783 0.393663 0.337891 0.240234C0.554352 0.0866798 0.848176 5.16942e-06 1.1543 0H806.675Z" fill="black"/>
<path d="M107.56 216C94.536 216 84.6867 212.375 78.012 205.125C71.3373 197.714 68 187.161 68 173.467V163.8H93.3964V175.4C93.3964 186.356 98.0361 191.833 107.316 191.833C111.874 191.833 115.293 190.544 117.572 187.967C120.014 185.228 121.235 180.878 121.235 174.917C121.235 167.828 119.607 161.625 116.351 156.308C113.095 150.831 107.071 144.306 98.2803 136.733C87.2101 127.067 79.4772 118.367 75.0817 110.633C70.6862 102.739 68.4884 93.8778 68.4884 84.05C68.4884 70.6778 71.9071 60.3667 78.7446 53.1167C85.5821 45.7056 95.5127 42 108.537 42C121.398 42 131.084 45.7056 137.596 53.1167C144.271 60.3667 147.608 70.8389 147.608 84.5333V91.5417H122.212V82.8417C122.212 77.0417 121.072 72.8528 118.793 70.275C116.514 67.5361 113.176 66.1667 108.781 66.1667C99.8269 66.1667 95.35 71.5639 95.35 82.3583C95.35 88.4806 96.9779 94.2 100.234 99.5167C103.653 104.833 109.758 111.278 118.549 118.85C129.782 128.517 137.514 137.297 141.747 145.192C145.98 153.086 148.096 162.35 148.096 172.983C148.096 186.839 144.596 197.472 137.596 204.883C130.758 212.294 120.746 216 107.56 216Z" fill="white"/>
<path d="M178.15 44.4167H205.011V113.292H233.826V44.4167H260.688V213.583H233.826V137.458H205.011V213.583H178.15V44.4167Z" fill="white"/>
<path d="M334.172 216C320.985 216 310.892 212.294 303.891 204.883C296.891 197.472 293.391 187 293.391 173.467V84.5333C293.391 71 296.891 60.5278 303.891 53.1167C310.892 45.7056 320.985 42 334.172 42C347.358 42 357.452 45.7056 364.452 53.1167C371.452 60.5278 374.952 71 374.952 84.5333V173.467C374.952 187 371.452 197.472 364.452 204.883C357.452 212.294 347.358 216 334.172 216ZM334.172 191.833C343.451 191.833 348.091 186.275 348.091 175.158V82.8417C348.091 71.725 343.451 66.1667 334.172 66.1667C324.892 66.1667 320.253 71.725 320.253 82.8417V175.158C320.253 186.275 324.892 191.833 334.172 191.833Z" fill="white"/>
<path d="M401.421 44.4167H427.306L439.271 174.433H439.76L452.458 44.4167H481.761L494.46 174.433H494.948L506.914 44.4167H530.112L512.774 213.583H479.32L467.11 99.5167H466.621L454.412 213.583H418.759L401.421 44.4167Z" fill="white"/>
<path d="M596.446 216C583.422 216 573.491 212.375 566.654 205.125C559.816 197.714 556.398 187.161 556.398 173.467V84.5333C556.398 70.8389 559.816 60.3667 566.654 53.1167C573.491 45.7056 583.422 42 596.446 42C609.47 42 619.4 45.7056 626.238 53.1167C633.075 60.3667 636.494 70.8389 636.494 84.5333V99.0333H611.098V82.8417C611.098 71.725 606.458 66.1667 597.178 66.1667C587.899 66.1667 583.259 71.725 583.259 82.8417V175.4C583.259 186.356 587.899 191.833 597.178 191.833C606.458 191.833 611.098 186.356 611.098 175.4V142.292H597.667V118.125H636.494V173.467C636.494 187.161 633.075 197.714 626.238 205.125C619.4 212.375 609.47 216 596.446 216Z" fill="white"/>
<path d="M707.219 216C694.033 216 683.939 212.294 676.939 204.883C669.939 197.472 666.439 187 666.439 173.467V84.5333C666.439 71 669.939 60.5278 676.939 53.1167C683.939 45.7056 694.033 42 707.219 42C720.406 42 730.499 45.7056 737.499 53.1167C744.5 60.5278 748 71 748 84.5333V173.467C748 187 744.5 197.472 737.499 204.883C730.499 212.294 720.406 216 707.219 216ZM707.219 191.833C716.499 191.833 721.138 186.275 721.138 175.158V82.8417C721.138 71.725 716.499 66.1667 707.219 66.1667C697.94 66.1667 693.3 71.725 693.3 82.8417V175.158C693.3 186.275 697.94 191.833 707.219 191.833Z" fill="white"/>
</svg>
