<svg width="939" height="275" viewBox="0 0 939 275" fill="none" xmlns="http://www.w3.org/2000/svg">
<g clip-path="url(#clip0_2421_9)">
<path d="M264.833 133.343C277.947 148.209 305.476 164.176 300.621 188.912C299.86 192.77 298.329 195.589 296.026 197.371C291.041 201.225 281.2 200.224 278.327 193.888C275.254 187.1 276.335 179.092 276.275 171.934C276.275 171.6 276.108 171.434 275.775 171.434H249.787C249.44 171.434 249.253 171.607 249.226 171.954C247.284 198.563 255.483 221.647 285.865 223.819C307.258 225.341 322.905 214.479 326.599 193.207C332.585 158.69 312.814 142.753 290.8 121.891C281.08 112.691 274.413 101.349 276.786 87.4642C278.127 79.6058 284.274 75.6616 291.892 77.1632C303.244 79.4056 302.493 91.2182 302.333 99.8474C302.326 100.188 302.49 100.358 302.823 100.358H326.609C326.969 100.358 327.166 100.174 327.199 99.8074C328.601 82.8793 323.565 62.2674 305.786 55.5903C285.595 48.0122 258.506 55.1298 252.039 78.0842C246.24 98.6728 250.504 117.092 264.833 133.343Z" stroke="#806600" stroke-width="2.00213"/>
<path d="M354.228 133.653C367.953 148.649 395.632 165.487 389.556 189.953C387.273 199.133 377.433 202.897 369.925 196.961C364.229 192.466 365.069 179.942 365.54 172.074C365.56 171.647 365.356 171.433 364.929 171.433H338.872C338.504 171.433 338.308 171.617 338.281 171.984C337.727 180.239 338.121 187.701 339.462 194.368C343.767 215.731 362.306 225.481 382.908 223.679C418.136 220.586 423.402 181.374 410.618 155.997C402.209 139.289 385.471 128.908 373.929 115.374C367.709 108.073 364.909 99.6703 365.53 90.1669C366.211 79.7758 373.689 74.33 383.779 78.1441C391.948 81.2273 392.038 91.9988 391.237 99.6269C391.184 100.114 391.401 100.358 391.888 100.358H415.904C416.184 100.358 416.334 100.218 416.354 99.9373C417.986 76.7326 409.427 55.7402 383.889 53.0273C357.822 50.2544 340.633 65.3605 339.082 90.8276C338.081 107.238 343.129 121.514 354.228 133.653Z" stroke="#806600" stroke-width="2.00213"/>
<path d="M91.4979 156.437C91.5302 156.379 91.5781 156.332 91.6361 156.301C91.6942 156.269 91.7599 156.254 91.8259 156.259C91.8918 156.263 91.9552 156.286 92.0088 156.324C92.0624 156.363 92.1039 156.416 92.1286 156.477L117.105 221.576C117.212 221.85 117.412 221.987 117.706 221.987H143.864C144.304 221.987 144.444 221.78 144.284 221.366L108.196 129.689C108.082 129.408 108.092 129.135 108.226 128.868L144.394 55.0091C144.418 54.9615 144.43 54.9086 144.427 54.8553C144.425 54.802 144.409 54.7502 144.381 54.705C144.353 54.6597 144.313 54.6225 144.267 54.5968C144.22 54.5712 144.167 54.558 144.114 54.5586H118.567C118.206 54.5586 117.946 54.7221 117.786 55.0491L84.3803 125.825C84.02 126.585 83.8398 126.545 83.8398 125.704V55.3094C83.8398 54.8089 83.5895 54.5586 83.089 54.5586H57.8121C57.4784 54.5586 57.3115 54.7255 57.3115 55.0591V221.486C57.3115 221.82 57.4784 221.987 57.8121 221.987H83.3392C83.6729 221.987 83.8398 221.82 83.8398 221.486V171.203C83.8398 170.923 83.9065 170.656 84.04 170.402L91.4979 156.437Z" stroke="#806600" stroke-width="2.00213"/>
<path d="M211.807 191.705C211.887 191.706 211.965 191.736 212.025 191.789C212.086 191.842 212.125 191.915 212.137 191.995L216.622 221.697C216.634 221.776 216.673 221.849 216.734 221.902C216.794 221.955 216.872 221.985 216.952 221.987H242.77C242.819 221.987 242.868 221.977 242.913 221.957C242.958 221.937 242.998 221.907 243.03 221.87C243.062 221.833 243.086 221.789 243.1 221.742C243.114 221.695 243.117 221.645 243.11 221.596L216.572 54.8489C216.56 54.7676 216.519 54.6934 216.456 54.64C216.393 54.5866 216.314 54.5577 216.231 54.5586H176.089C176.006 54.5577 175.927 54.5866 175.864 54.64C175.801 54.6934 175.76 54.7676 175.748 54.8489L149.24 221.596C149.233 221.645 149.236 221.695 149.25 221.742C149.264 221.789 149.288 221.833 149.32 221.87C149.352 221.907 149.393 221.937 149.437 221.957C149.482 221.977 149.531 221.987 149.58 221.987H175.388C175.468 221.985 175.546 221.955 175.606 221.902C175.667 221.849 175.706 221.776 175.718 221.697L180.183 191.995C180.195 191.915 180.234 191.842 180.295 191.789C180.355 191.736 180.433 191.706 180.513 191.705H211.807Z" stroke="#806600" stroke-width="2.00213"/>
<path d="M457.988 54.8289C457.988 54.7572 457.96 54.6884 457.909 54.6377C457.858 54.5871 457.79 54.5586 457.718 54.5586H431.73C431.659 54.5586 431.59 54.5871 431.539 54.6377C431.488 54.6884 431.46 54.7572 431.46 54.8289V221.727C431.46 221.798 431.488 221.867 431.539 221.918C431.59 221.968 431.659 221.997 431.73 221.997H457.718C457.79 221.997 457.858 221.968 457.909 221.918C457.96 221.867 457.988 221.798 457.988 221.727V54.8289Z" stroke="#806600" stroke-width="2.00213"/>
<path d="M539.274 139.86C557.794 130.03 555.392 108.306 555.311 90.8478C555.201 64.7801 539.745 54.5592 515.539 54.5191C502.806 54.4991 490.035 54.5258 477.228 54.5992C476.915 54.5992 476.758 54.7561 476.758 55.0697V221.487C476.758 221.821 476.925 221.987 477.258 221.987H502.786C503.119 221.987 503.286 221.821 503.286 221.487V154.436C503.286 154.326 503.327 154.221 503.401 154.141C503.476 154.061 503.578 154.013 503.687 154.005C518.652 153.154 529.394 155.347 529.124 173.186C528.91 187.06 529.003 199.303 529.404 209.915C529.544 213.565 530.241 217.443 531.496 221.547C531.583 221.841 531.78 221.987 532.087 221.987H557.564C557.851 221.987 557.958 221.847 557.884 221.567C553.85 205.66 555.642 186.77 555.492 170.373C555.392 158.73 550.616 145.916 539.304 140.731C539.222 140.692 539.151 140.631 539.1 140.555C539.05 140.478 539.021 140.39 539.018 140.299C539.015 140.209 539.037 140.119 539.083 140.042C539.128 139.964 539.194 139.901 539.274 139.86Z" stroke="#806600" stroke-width="2.00213"/>
<path d="M840.615 152.153C840.702 163.265 840.676 174.357 840.535 185.429C840.445 192.556 836.621 197.852 829.243 198.372C816.9 199.233 813.827 190.434 813.837 180.053C813.877 152.083 813.884 124.103 813.857 96.1135C813.847 85.8125 814.768 76.7729 826.521 75.872C835.58 75.1712 840.696 80.6671 840.656 89.6066C840.622 96.2537 840.626 102.927 840.666 109.628C840.666 109.955 840.829 110.118 841.156 110.118H866.653C866.786 110.118 866.913 110.066 867.007 109.972C867.101 109.878 867.154 109.751 867.154 109.618C867.214 101.619 867.704 93.0202 866.703 85.0918C863.56 60.1652 844.49 49.7541 820.824 51.9765C797.249 54.1889 787.369 71.1669 787.349 92.85C787.329 122.168 787.332 151.486 787.359 180.804C787.369 187.431 788.07 193.097 789.942 198.883C796.939 220.406 818.942 225.812 838.944 221.287C856.683 217.283 867.144 202.046 867.164 184.187C867.19 165.441 867.19 146.674 867.164 127.887C867.164 127.554 866.997 127.387 866.663 127.387H830.885C830.752 127.387 830.625 127.44 830.531 127.533C830.437 127.627 830.385 127.755 830.385 127.887V151.162C830.385 151.496 830.551 151.663 830.885 151.663H840.125C840.445 151.663 840.609 151.826 840.615 152.153Z" stroke="#806600" stroke-width="2.00213"/>
<path d="M719.017 124.413V54.1783C719.017 54.0137 718.95 53.8558 718.832 53.7394C718.714 53.623 718.553 53.5576 718.386 53.5576H692.989C692.856 53.5576 692.729 53.6104 692.635 53.7042C692.541 53.7981 692.488 53.9254 692.488 54.0582V220.235C692.488 220.569 692.655 220.736 692.989 220.736H718.496C718.836 220.736 719.007 220.569 719.007 220.235C719.033 204.185 719.033 188.128 719.007 172.064C718.997 167.299 724.102 159.561 726.585 155.356C726.832 154.929 727.045 154.946 727.225 155.406L752.142 220.245C752.269 220.572 752.506 220.736 752.853 220.736H779.04C779.381 220.736 779.488 220.579 779.361 220.265L743.392 128.848C743.192 128.341 743.212 127.84 743.453 127.346L779.331 54.0181C779.355 53.9691 779.366 53.9148 779.363 53.8604C779.36 53.806 779.343 53.7532 779.314 53.7071C779.285 53.661 779.244 53.6231 779.196 53.5969C779.149 53.5708 779.095 53.5572 779.04 53.5576H753.543C753.176 53.5576 752.916 53.7211 752.762 54.0481L719.507 124.523C719.48 124.574 719.438 124.614 719.386 124.638C719.334 124.663 719.275 124.669 719.22 124.656C719.164 124.644 719.114 124.613 719.077 124.569C719.04 124.525 719.019 124.47 719.017 124.413Z" stroke="#806600" stroke-width="2.00213"/>
<path d="M195.749 88.0941L183.766 168.189C183.72 168.516 183.863 168.68 184.197 168.68H207.912C208.379 168.68 208.58 168.45 208.513 167.989L196.45 88.0941C196.216 86.5324 195.983 86.5324 195.749 88.0941Z" stroke="#806600" stroke-width="2.00213"/>
<path d="M503.236 79.3653L503.316 129.138C503.316 129.23 503.335 129.321 503.37 129.406C503.405 129.492 503.457 129.569 503.522 129.634C503.587 129.699 503.664 129.751 503.749 129.786C503.834 129.821 503.925 129.839 504.017 129.839L515.66 129.819C517.42 129.817 519.163 129.442 520.788 128.715C522.414 127.989 523.89 126.926 525.133 125.586C526.376 124.247 527.361 122.657 528.032 120.908C528.703 119.16 529.047 117.286 529.044 115.394L529.004 93.0299C528.998 89.2097 527.58 85.5481 525.063 82.8504C522.545 80.1527 519.134 78.6398 515.579 78.6445L503.937 78.6646C503.751 78.6646 503.573 78.7384 503.442 78.8698C503.31 79.0012 503.236 79.1795 503.236 79.3653Z" stroke="#806600" stroke-width="2.00213"/>
<path d="M614.745 254.712C604.885 256.364 605.035 269.628 614.525 270.559C614.946 270.599 615.156 270.829 615.156 271.249V273.161C615.156 273.582 614.946 273.792 614.525 273.792H0.75151C0.61876 273.792 0.491447 273.739 0.397579 273.646C0.303711 273.552 0.250977 273.424 0.250977 273.292V161.683C0.250977 161.329 0.42783 161.135 0.78154 161.102C32.8056 157.939 31.1138 114.292 0.711466 113.331C0.404472 113.325 0.250977 113.168 0.250977 112.861V1.01164C0.250977 0.671275 0.42116 0.501099 0.761522 0.501099C203.437 0.494425 406.103 0.494425 608.759 0.501099C611.001 0.501099 612.453 1.45211 614.585 2.0127C614.966 2.11281 615.156 2.35975 615.156 2.7535V7.74882C615.156 8.11588 614.972 8.33277 614.605 8.39951C604.805 10.1914 604.945 22.4645 614.595 24.3765C614.969 24.4499 615.156 24.6768 615.156 25.0572V30.2628C615.156 30.5898 614.996 30.78 614.675 30.8334C605.015 32.4851 605.005 44.6982 614.585 46.4C614.966 46.4667 615.156 46.6903 615.156 47.0707V52.7467C615.156 53.0003 615.029 53.1472 614.775 53.1872C605.185 54.6988 604.705 66.8117 614.555 68.8439C614.956 68.924 615.156 69.1676 615.156 69.5747V74.7802C615.156 75.0538 615.022 75.214 614.755 75.2607C605.045 76.8924 604.725 89.4158 614.525 91.2778C614.946 91.3578 615.156 91.6115 615.156 92.0386V97.0739C615.156 97.441 614.976 97.6579 614.615 97.7246C604.775 99.5766 604.965 112.05 614.675 113.752C614.996 113.812 615.156 114.002 615.156 114.322V120.078C615.156 120.345 615.022 120.499 614.755 120.539C605.075 122.051 604.905 134.264 614.615 136.025C614.976 136.092 615.156 136.309 615.156 136.676V142.362C615.156 142.709 614.986 142.916 614.645 142.983C605.045 144.845 605.025 156.717 614.555 158.469C614.956 158.543 615.156 158.783 615.156 159.19V164.876C615.156 165.156 615.019 165.32 614.745 165.367C605.225 166.948 604.965 178.771 614.565 180.493C614.959 180.56 615.156 180.793 615.156 181.194V187.22C615.156 187.634 614.949 187.871 614.535 187.931C605.425 189.192 604.775 200.624 614.525 202.897C614.946 202.997 615.156 203.26 615.156 203.687V209.714C615.156 210.054 614.989 210.251 614.655 210.305C605.165 211.796 604.995 223.479 614.595 225.321C614.969 225.394 615.156 225.621 615.156 226.001V231.747C615.156 232.081 614.992 232.278 614.665 232.338C604.895 234.11 605.035 246.363 614.745 247.835C615.019 247.875 615.156 248.035 615.156 248.315V254.221C615.156 254.502 615.019 254.665 614.745 254.712ZM264.833 133.343C277.947 148.208 305.476 164.175 300.621 188.912C299.86 192.769 298.328 195.589 296.026 197.371C291.041 201.225 281.2 200.224 278.327 193.887C275.254 187.1 276.335 179.091 276.275 171.934C276.275 171.6 276.108 171.433 275.774 171.433H249.787C249.44 171.433 249.253 171.607 249.226 171.954C247.284 198.562 255.483 221.647 285.865 223.819C307.258 225.341 322.905 214.479 326.599 193.206C332.585 158.69 312.814 142.753 290.8 121.89C281.08 112.691 274.413 101.348 276.785 87.4637C278.127 79.6053 284.273 75.6611 291.892 77.1627C303.244 79.4051 302.493 91.2177 302.333 99.8469C302.326 100.187 302.49 100.357 302.823 100.357H326.609C326.969 100.357 327.166 100.174 327.199 99.8069C328.601 82.8788 323.565 62.2669 305.786 55.5898C285.595 48.0117 258.506 55.1293 252.039 78.0837C246.24 98.6723 250.504 117.092 264.833 133.343ZM354.228 133.653C367.953 148.649 395.632 165.487 389.556 189.953C387.273 199.133 377.433 202.897 369.925 196.96C364.229 192.466 365.069 179.942 365.54 172.074C365.56 171.647 365.356 171.433 364.929 171.433H338.872C338.505 171.433 338.308 171.617 338.281 171.984C337.727 180.239 338.121 187.7 339.462 194.368C343.767 215.73 362.307 225.481 382.908 223.679C418.136 220.585 423.402 181.374 410.618 155.997C402.209 139.289 385.471 128.908 373.929 115.373C367.709 108.072 364.909 99.67 365.53 90.1666C366.211 79.7755 373.689 74.3297 383.779 78.1438C391.948 81.2271 392.038 91.9985 391.237 99.6266C391.184 100.114 391.401 100.357 391.888 100.357H415.904C416.184 100.357 416.334 100.217 416.354 99.937C417.986 76.7323 409.427 55.7399 383.89 53.027C357.822 50.2541 340.633 65.3602 339.082 90.8273C338.081 107.238 343.129 121.513 354.228 133.653ZM91.4981 156.437C91.5304 156.38 91.5783 156.332 91.6364 156.301C91.6944 156.269 91.7602 156.254 91.8261 156.259C91.892 156.263 91.9554 156.286 92.009 156.324C92.0626 156.363 92.1041 156.416 92.1288 156.477L117.105 221.577C117.212 221.85 117.412 221.987 117.706 221.987H143.864C144.304 221.987 144.445 221.78 144.284 221.366L108.196 129.689C108.082 129.408 108.092 129.135 108.226 128.868L144.394 55.0092C144.419 54.9616 144.43 54.9086 144.428 54.8553C144.425 54.8021 144.409 54.7503 144.381 54.705C144.353 54.6598 144.314 54.6225 144.267 54.5969C144.22 54.5713 144.167 54.5581 144.114 54.5587H118.567C118.207 54.5587 117.946 54.7222 117.786 55.0492L84.3806 125.825C84.0202 126.585 83.84 126.545 83.84 125.704V55.3095C83.84 54.8089 83.5897 54.5587 83.0892 54.5587H57.8123C57.4786 54.5587 57.3117 54.7255 57.3117 55.0592V221.486C57.3117 221.82 57.4786 221.987 57.8123 221.987H83.3395C83.6732 221.987 83.84 221.82 83.84 221.486V171.203C83.84 170.923 83.9067 170.656 84.0402 170.402L91.4981 156.437ZM211.806 191.705C211.887 191.706 211.964 191.736 212.025 191.789C212.085 191.843 212.125 191.915 212.137 191.995L216.621 221.697C216.633 221.776 216.673 221.849 216.733 221.902C216.794 221.956 216.871 221.985 216.952 221.987H242.769C242.818 221.988 242.867 221.977 242.912 221.957C242.957 221.937 242.997 221.907 243.03 221.87C243.062 221.833 243.086 221.789 243.1 221.742C243.113 221.695 243.117 221.645 243.11 221.597L216.571 54.849C216.559 54.7676 216.518 54.6934 216.456 54.6401C216.393 54.5867 216.313 54.5578 216.231 54.5587H176.088C176.006 54.5578 175.926 54.5867 175.864 54.6401C175.801 54.6934 175.76 54.7676 175.748 54.849L149.24 221.597C149.232 221.645 149.236 221.695 149.25 221.742C149.263 221.789 149.287 221.833 149.32 221.87C149.352 221.907 149.392 221.937 149.437 221.957C149.482 221.977 149.531 221.988 149.58 221.987H175.388C175.468 221.985 175.545 221.956 175.606 221.902C175.666 221.849 175.706 221.776 175.718 221.697L180.183 191.995C180.194 191.915 180.234 191.843 180.295 191.789C180.355 191.736 180.432 191.706 180.513 191.705H211.806ZM457.988 54.8289C457.988 54.7573 457.96 54.6885 457.909 54.6378C457.859 54.5871 457.79 54.5587 457.718 54.5587H431.731C431.659 54.5587 431.59 54.5871 431.539 54.6378C431.489 54.6885 431.46 54.7573 431.46 54.8289V221.727C431.46 221.798 431.489 221.867 431.539 221.918C431.59 221.968 431.659 221.997 431.731 221.997H457.718C457.79 221.997 457.859 221.968 457.909 221.918C457.96 221.867 457.988 221.798 457.988 221.727V54.8289ZM539.275 139.86C557.795 130.029 555.392 108.306 555.312 90.8473C555.202 64.7795 539.746 54.5587 515.54 54.5186C502.806 54.4986 490.036 54.5253 477.229 54.5987C476.915 54.5987 476.758 54.7556 476.758 55.0692V221.486C476.758 221.82 476.925 221.987 477.259 221.987H502.786C503.12 221.987 503.287 221.82 503.287 221.486V154.435C503.286 154.326 503.328 154.221 503.402 154.141C503.476 154.061 503.578 154.012 503.687 154.005C518.653 153.154 529.394 155.346 529.124 173.185C528.911 187.06 529.004 199.303 529.405 209.914C529.545 213.565 530.242 217.442 531.497 221.547C531.583 221.84 531.78 221.987 532.087 221.987H557.564C557.851 221.987 557.958 221.847 557.885 221.567C553.851 205.66 555.642 186.769 555.492 170.372C555.392 158.73 550.617 145.916 539.305 140.73C539.222 140.692 539.151 140.631 539.101 140.554C539.05 140.478 539.022 140.389 539.019 140.299C539.015 140.208 539.038 140.119 539.083 140.041C539.128 139.964 539.195 139.901 539.275 139.86Z" fill="black"/>
<path d="M620.852 193.406C630.492 191.164 630.692 179.081 620.962 177.59C620.809 177.568 620.67 177.491 620.569 177.374C620.468 177.256 620.412 177.105 620.411 176.949V171.453C620.411 171.186 620.541 171.029 620.802 170.983C630.542 169.291 630.602 156.767 620.982 155.066C620.601 154.999 620.411 154.775 620.411 154.395V148.919C620.411 148.525 620.601 148.288 620.982 148.208C630.452 146.096 630.712 134.834 620.982 132.181C620.601 132.081 620.411 131.834 620.411 131.44V126.195C620.411 125.935 620.538 125.781 620.792 125.734C630.532 124.043 630.612 111.369 620.832 109.807C620.551 109.767 620.411 109.607 620.411 109.327V103.861C620.411 103.527 620.578 103.33 620.912 103.27C630.542 101.519 630.462 89.3156 620.802 87.7439C620.541 87.6972 620.411 87.5437 620.411 87.2834V81.3571C620.411 81.0501 620.565 80.8732 620.872 80.8265C630.542 79.2248 630.442 66.8617 620.872 65.33C620.565 65.2833 620.411 65.1031 620.411 64.7894V58.8631C620.411 58.5895 620.548 58.4327 620.822 58.3926C630.362 56.9911 630.622 44.8582 620.942 42.9061C620.588 42.8394 620.411 42.6258 620.411 42.2655V37.0499C620.411 36.6428 620.611 36.3992 621.012 36.3191C630.672 34.4071 630.442 21.8938 620.802 20.4222C620.541 20.3821 620.411 20.2287 620.411 19.9617V14.5359C620.411 14.2223 620.565 14.0354 620.872 13.9753C627.659 12.6539 629.911 6.92782 626.528 1.11163C626.294 0.704527 626.414 0.500977 626.888 0.500977H938.75C939.084 0.500977 939.251 0.667821 939.251 1.00151V112.62C939.251 112.961 939.08 113.148 938.74 113.181C907.257 116.204 908.228 159.5 938.79 160.952C939.097 160.965 939.251 161.125 939.251 161.432V273.291C939.251 273.625 939.084 273.792 938.75 273.792H628.66C628.346 273.792 628.149 273.642 628.069 273.342C627.042 269.664 624.626 267.469 620.822 266.755C620.548 266.701 620.411 266.534 620.411 266.254V260.998C620.411 260.565 620.625 260.318 621.052 260.258C630.492 258.876 630.492 245.702 621.042 244.501C620.621 244.447 620.411 244.207 620.411 243.78V238.524C620.411 238.137 620.601 237.91 620.982 237.844C630.492 236.122 630.412 224.089 620.972 222.387C620.598 222.321 620.411 222.097 620.411 221.717V215.99C620.411 215.663 620.575 215.477 620.902 215.43C630.492 214.038 630.352 201.095 620.882 199.973C620.568 199.94 620.411 199.767 620.411 199.453V193.967C620.412 193.838 620.455 193.713 620.535 193.611C620.615 193.51 620.726 193.438 620.852 193.406ZM840.616 152.152C840.702 163.264 840.676 174.356 840.536 185.428C840.445 192.556 836.621 197.851 829.244 198.372C816.9 199.233 813.827 190.433 813.837 180.052C813.877 152.082 813.884 124.103 813.857 96.1128C813.847 85.8118 814.768 76.7722 826.521 75.8713C835.58 75.1705 840.696 80.6664 840.656 89.6059C840.622 96.253 840.626 102.927 840.666 109.627C840.666 109.954 840.829 110.118 841.156 110.118H866.653C866.786 110.118 866.913 110.065 867.007 109.971C867.101 109.877 867.154 109.75 867.154 109.617C867.214 101.619 867.705 93.0195 866.703 85.0911C863.56 60.1645 844.49 49.7534 820.825 51.9758C797.249 54.1882 787.369 71.1662 787.349 92.8493C787.329 122.167 787.332 151.485 787.359 180.803C787.369 187.43 788.07 193.096 789.942 198.882C796.939 220.405 818.943 225.811 838.944 221.286C856.683 217.282 867.144 202.046 867.164 184.187C867.191 165.44 867.191 146.673 867.164 127.887C867.164 127.553 866.997 127.386 866.663 127.386H830.885C830.753 127.386 830.625 127.439 830.531 127.533C830.437 127.627 830.385 127.754 830.385 127.887V151.161C830.385 151.495 830.552 151.662 830.885 151.662H840.125C840.445 151.662 840.609 151.825 840.616 152.152ZM719.016 124.413V54.1781C719.016 54.0135 718.95 53.8556 718.831 53.7393C718.713 53.6229 718.553 53.5575 718.385 53.5575H692.988C692.856 53.5575 692.728 53.6102 692.634 53.7041C692.541 53.798 692.488 53.9253 692.488 54.058V220.235C692.488 220.569 692.655 220.736 692.988 220.736H718.496C718.836 220.736 719.006 220.569 719.006 220.235C719.033 204.185 719.033 188.127 719.006 172.064C718.996 167.299 724.102 159.56 726.584 155.356C726.831 154.929 727.045 154.945 727.225 155.406L752.141 220.245C752.268 220.572 752.505 220.736 752.852 220.736H779.04C779.38 220.736 779.487 220.579 779.36 220.265L743.392 128.848C743.192 128.34 743.212 127.84 743.452 127.346L779.33 54.018C779.354 53.969 779.365 53.9147 779.362 53.8603C779.359 53.8058 779.342 53.7531 779.313 53.707C779.284 53.6609 779.244 53.623 779.196 53.5968C779.148 53.5706 779.095 53.5571 779.04 53.5575H753.543C753.176 53.5575 752.916 53.721 752.762 54.048L719.507 124.523C719.48 124.574 719.437 124.614 719.385 124.638C719.334 124.662 719.275 124.669 719.219 124.656C719.163 124.644 719.113 124.613 719.076 124.569C719.04 124.525 719.019 124.47 719.016 124.413Z" fill="black"/>
<path d="M840.125 151.663H830.885C830.551 151.663 830.385 151.496 830.385 151.162V127.887C830.385 127.755 830.437 127.627 830.531 127.533C830.625 127.44 830.752 127.387 830.885 127.387H866.663C866.997 127.387 867.164 127.554 867.164 127.887C867.19 146.674 867.19 165.441 867.164 184.187C867.144 202.046 856.683 217.283 838.944 221.287C818.942 225.812 796.939 220.406 789.942 198.883C788.07 193.097 787.369 187.431 787.359 180.804C787.332 151.486 787.329 122.168 787.349 92.85C787.369 71.1669 797.249 54.1889 820.824 51.9765C844.49 49.7541 863.56 60.1652 866.703 85.0918C867.704 93.0202 867.214 101.619 867.154 109.618C867.154 109.751 867.101 109.878 867.007 109.972C866.913 110.066 866.786 110.118 866.653 110.118H841.156C840.829 110.118 840.666 109.955 840.666 109.628C840.626 102.927 840.622 96.2537 840.656 89.6066C840.696 80.6671 835.58 75.1712 826.521 75.872C814.768 76.7729 813.847 85.8125 813.857 96.1135C813.884 124.103 813.877 152.083 813.837 180.053C813.827 190.434 816.9 199.233 829.243 198.372C836.621 197.852 840.445 192.556 840.535 185.429C840.676 174.357 840.702 163.265 840.615 152.153C840.609 151.826 840.445 151.663 840.125 151.663Z" fill="white"/>
<path d="M300.62 188.911C305.475 164.175 277.946 148.208 264.832 133.342C250.503 117.091 246.239 98.6718 252.038 78.0832C258.505 55.1288 285.594 48.0112 305.785 55.5893C323.564 62.2664 328.6 82.8784 327.198 99.8064C327.165 100.173 326.968 100.357 326.608 100.357H302.822C302.489 100.357 302.325 100.187 302.332 99.8464C302.492 91.2172 303.243 79.4046 291.891 77.1623C284.273 75.6607 278.126 79.6049 276.785 87.4632C274.412 101.348 281.079 112.69 290.8 121.89C312.813 142.752 332.584 158.689 326.598 193.206C322.904 214.479 307.257 225.34 285.864 223.818C255.482 221.646 247.283 198.562 249.225 171.953C249.252 171.606 249.439 171.433 249.786 171.433H275.774C276.107 171.433 276.274 171.6 276.274 171.933C276.334 179.091 275.253 187.099 278.326 193.887C281.199 200.223 291.04 201.224 296.025 197.37C298.328 195.588 299.859 192.769 300.62 188.911Z" fill="white"/>
<path d="M354.227 133.653C343.128 121.514 338.08 107.238 339.081 90.8276C340.632 65.3605 357.821 50.2544 383.889 53.0273C409.426 55.7402 417.985 76.7326 416.353 99.9373C416.333 100.218 416.183 100.358 415.903 100.358H391.887C391.4 100.358 391.183 100.114 391.236 99.6269C392.037 91.9988 391.947 81.2273 383.778 78.1441C373.688 74.33 366.21 79.7758 365.529 90.1669C364.908 99.6703 367.708 108.073 373.928 115.374C385.47 128.908 402.208 139.289 410.617 155.997C423.401 181.374 418.135 220.586 382.907 223.679C362.306 225.481 343.766 215.731 339.461 194.368C338.12 187.701 337.726 180.239 338.28 171.984C338.307 171.617 338.504 171.433 338.871 171.433H364.928C365.355 171.433 365.559 171.647 365.539 172.074C365.068 179.942 364.228 192.466 369.924 196.961C377.432 202.897 387.272 199.133 389.555 189.953C395.631 165.487 367.952 148.649 354.227 133.653Z" fill="white"/>
<path d="M719.016 124.413C719.018 124.47 719.039 124.525 719.076 124.569C719.113 124.613 719.163 124.644 719.219 124.656C719.274 124.669 719.333 124.663 719.385 124.638C719.437 124.614 719.479 124.574 719.506 124.523L752.762 54.0481C752.915 53.7211 753.175 53.5576 753.542 53.5576H779.04C779.094 53.5572 779.148 53.5708 779.195 53.5969C779.243 53.6231 779.284 53.661 779.313 53.7071C779.342 53.7532 779.359 53.806 779.362 53.8604C779.365 53.9148 779.354 53.9691 779.33 54.0181L743.452 127.346C743.211 127.84 743.191 128.341 743.391 128.848L779.36 220.265C779.487 220.579 779.38 220.736 779.04 220.736H752.852C752.505 220.736 752.268 220.572 752.141 220.245L727.224 155.406C727.044 154.946 726.831 154.929 726.584 155.356C724.101 159.561 718.996 167.299 719.006 172.064C719.032 188.128 719.032 204.185 719.006 220.235C719.006 220.569 718.835 220.736 718.495 220.736H692.988C692.654 220.736 692.487 220.569 692.487 220.235V54.0582C692.487 53.9254 692.54 53.7981 692.634 53.7042C692.728 53.6104 692.855 53.5576 692.988 53.5576H718.385C718.552 53.5576 718.713 53.623 718.831 53.7394C718.949 53.8558 719.016 54.0137 719.016 54.1783V124.413Z" fill="white"/>
<path d="M91.497 156.437L84.039 170.402C83.9055 170.656 83.8388 170.923 83.8388 171.203V221.486C83.8388 221.82 83.672 221.987 83.3383 221.987H57.8111C57.4774 221.987 57.3105 221.82 57.3105 221.486V55.0591C57.3105 54.7255 57.4774 54.5586 57.8111 54.5586H83.088C83.5885 54.5586 83.8388 54.8089 83.8388 55.3094V125.704C83.8388 126.545 84.019 126.585 84.3794 125.825L117.785 55.0491C117.945 54.7221 118.205 54.5586 118.566 54.5586H144.113C144.166 54.558 144.219 54.5712 144.266 54.5968C144.312 54.6225 144.352 54.6597 144.38 54.705C144.408 54.7502 144.424 54.802 144.426 54.8553C144.429 54.9086 144.417 54.9615 144.393 55.0091L108.225 128.868C108.091 129.135 108.081 129.408 108.195 129.689L144.283 221.366C144.443 221.78 144.303 221.987 143.863 221.987H117.705C117.411 221.987 117.211 221.85 117.104 221.576L92.1276 156.477C92.1029 156.416 92.0614 156.363 92.0078 156.324C91.9542 156.286 91.8908 156.263 91.8249 156.259C91.759 156.254 91.6932 156.269 91.6352 156.301C91.5771 156.332 91.5292 156.379 91.497 156.437Z" fill="white"/>
<path d="M211.949 191.797H180.656C180.575 191.799 180.498 191.829 180.438 191.882C180.377 191.935 180.337 192.008 180.326 192.088L175.861 221.789C175.849 221.869 175.809 221.942 175.749 221.995C175.688 222.048 175.611 222.078 175.53 222.08H149.723C149.674 222.08 149.625 222.07 149.58 222.05C149.535 222.03 149.495 222 149.463 221.963C149.43 221.926 149.406 221.882 149.393 221.835C149.379 221.788 149.375 221.738 149.383 221.689L175.891 54.9417C175.903 54.8604 175.944 54.7861 176.007 54.7328C176.069 54.6794 176.149 54.6505 176.231 54.6514H216.374C216.456 54.6505 216.536 54.6794 216.599 54.7328C216.661 54.7861 216.702 54.8604 216.714 54.9417L243.253 221.689C243.26 221.738 243.256 221.788 243.243 221.835C243.229 221.882 243.205 221.926 243.172 221.963C243.14 222 243.1 222.03 243.055 222.05C243.01 222.07 242.961 222.08 242.912 222.08H217.095C217.014 222.078 216.937 222.048 216.876 221.995C216.816 221.942 216.776 221.869 216.764 221.789L212.28 192.088C212.268 192.008 212.228 191.935 212.168 191.882C212.107 191.829 212.03 191.799 211.949 191.797ZM195.892 88.1871L183.909 168.282C183.863 168.609 184.006 168.773 184.34 168.773H208.055C208.522 168.773 208.722 168.543 208.656 168.082L196.593 88.1871C196.359 86.6254 196.126 86.6254 195.892 88.1871Z" fill="white"/>
<path d="M457.718 54.5586H431.73C431.581 54.5586 431.46 54.6796 431.46 54.8289V221.727C431.46 221.876 431.581 221.997 431.73 221.997H457.718C457.867 221.997 457.988 221.876 457.988 221.727V54.8289C457.988 54.6796 457.867 54.5586 457.718 54.5586Z" fill="white"/>
<path d="M539.274 139.859C539.194 139.9 539.128 139.963 539.083 140.041C539.037 140.118 539.015 140.208 539.018 140.298C539.021 140.389 539.05 140.477 539.1 140.554C539.151 140.63 539.222 140.691 539.304 140.73C550.616 145.915 555.392 158.729 555.492 170.372C555.642 186.769 553.85 205.659 557.884 221.566C557.958 221.846 557.851 221.987 557.564 221.987H532.087C531.78 221.987 531.583 221.84 531.496 221.546C530.241 217.442 529.544 213.564 529.404 209.914C529.003 199.302 528.91 187.059 529.124 173.185C529.394 155.346 518.652 153.153 503.687 154.004C503.578 154.012 503.476 154.06 503.401 154.14C503.327 154.22 503.286 154.325 503.286 154.435V221.486C503.286 221.82 503.119 221.987 502.786 221.987H477.258C476.925 221.987 476.758 221.82 476.758 221.486V55.0688C476.758 54.7551 476.915 54.5983 477.228 54.5983C490.035 54.5248 502.806 54.4981 515.539 54.5182C539.745 54.5582 555.201 64.7791 555.311 90.8469C555.392 108.305 557.794 130.029 539.274 139.859ZM503.236 79.3646L503.316 129.138C503.316 129.23 503.334 129.321 503.369 129.406C503.405 129.491 503.456 129.568 503.521 129.633C503.586 129.698 503.664 129.75 503.749 129.785C503.834 129.82 503.925 129.838 504.017 129.838L515.659 129.818C517.42 129.816 519.162 129.441 520.788 128.715C522.413 127.989 523.889 126.925 525.132 125.586C526.375 124.246 527.36 122.657 528.031 120.908C528.702 119.159 529.046 117.285 529.043 115.393L529.003 93.0292C528.998 89.209 527.58 85.5474 525.063 82.8497C522.545 80.152 519.134 78.6391 515.579 78.6439L503.937 78.6639C503.751 78.6639 503.573 78.7377 503.441 78.8691C503.31 79.0005 503.236 79.1788 503.236 79.3646Z" fill="white"/>
<path d="M503.236 79.3653C503.236 79.1795 503.31 79.0012 503.442 78.8698C503.573 78.7384 503.751 78.6646 503.937 78.6646L515.579 78.6445C519.134 78.6398 522.545 80.1527 525.063 82.8504C527.58 85.5481 528.998 89.2097 529.004 93.0299L529.044 115.394C529.047 117.286 528.703 119.16 528.032 120.908C527.361 122.657 526.376 124.247 525.133 125.586C523.89 126.926 522.414 127.989 520.788 128.715C519.163 129.442 517.42 129.817 515.66 129.819L504.017 129.839C503.925 129.839 503.834 129.821 503.749 129.786C503.664 129.751 503.587 129.699 503.522 129.634C503.457 129.569 503.405 129.492 503.37 129.406C503.335 129.321 503.316 129.23 503.316 129.138L503.236 79.3653Z" fill="black"/>
<path d="M195.817 87.9505C196.05 86.3889 196.284 86.3889 196.517 87.9505L208.58 167.846C208.647 168.306 208.447 168.536 207.98 168.536H184.264C183.931 168.536 183.787 168.373 183.834 168.046L195.817 87.9505Z" fill="black"/>
</g>
<defs>
<clipPath id="clip0_2421_9">
<rect width="939" height="274.292" fill="white"/>
</clipPath>
</defs>
</svg>
