<svg width="192" height="192" viewBox="0 0 192 192" fill="none" xmlns="http://www.w3.org/2000/svg">
<rect width="192" height="192" fill="white"/>
<path d="M180.398 77.0088C180.425 77.0088 180.451 77.0186 180.47 77.0361C180.488 77.0537 180.499 77.0778 180.499 77.1025L180.489 91.2891C180.468 91.2888 180.447 91.2881 180.426 91.2881C177.823 91.2881 175.712 93.3988 175.712 96.002C175.712 98.6053 177.822 100.716 180.426 100.716C180.45 100.716 180.474 100.714 180.498 100.714L180.489 114.751C180.489 114.777 180.479 114.802 180.459 114.82C180.439 114.838 180.412 114.849 180.385 114.849H134.833C134.807 114.849 134.781 114.84 134.759 114.826C134.737 114.812 134.72 114.792 134.711 114.769C134.621 114.535 134.511 114.344 134.384 114.198C134.243 114.039 134.004 113.933 133.665 113.88C133.644 113.877 133.624 113.867 133.61 113.853C133.597 113.838 133.588 113.82 133.588 113.801V113.091C133.588 113.072 133.596 113.052 133.609 113.037C133.623 113.022 133.642 113.012 133.662 113.008C134.043 112.931 134.33 112.757 134.523 112.487C134.716 112.217 134.768 111.93 134.679 111.625C134.56 111.221 134.223 110.929 133.668 110.749C133.646 110.742 133.626 110.728 133.612 110.711C133.599 110.694 133.591 110.674 133.591 110.653L133.6 109.952C133.6 109.934 133.609 109.915 133.624 109.9C133.639 109.886 133.66 109.875 133.683 109.871C134.063 109.804 134.347 109.634 134.534 109.362C134.719 109.097 134.762 108.814 134.664 108.514C134.535 108.119 134.2 107.853 133.66 107.716C133.638 107.71 133.618 107.697 133.604 107.681C133.59 107.664 133.582 107.642 133.582 107.621V107.05C133.582 106.917 133.691 106.81 133.905 106.729C134.381 106.549 134.646 106.252 134.699 105.836C134.737 105.538 134.664 105.276 134.482 105.053C134.295 104.822 134.023 104.677 133.669 104.62C133.645 104.616 133.623 104.604 133.607 104.587C133.592 104.57 133.582 104.547 133.582 104.524V103.839C133.582 103.809 133.594 103.78 133.614 103.757C133.635 103.734 133.663 103.718 133.694 103.712C134.066 103.645 134.346 103.481 134.532 103.221C134.71 102.971 134.765 102.693 134.696 102.385C134.594 101.931 134.251 101.636 133.668 101.5C133.646 101.495 133.625 101.484 133.611 101.468C133.597 101.452 133.589 101.433 133.59 101.413L133.602 100.697C133.602 100.679 133.61 100.661 133.624 100.646C133.639 100.632 133.66 100.621 133.683 100.617C133.934 100.569 134.151 100.47 134.334 100.32C134.502 100.183 134.613 99.9952 134.667 99.7578C134.828 99.0545 134.499 98.6052 133.681 98.4102C133.658 98.4046 133.637 98.3931 133.622 98.3779C133.607 98.3626 133.599 98.3435 133.6 98.3252L133.607 97.5537C133.607 97.5352 133.616 97.5165 133.631 97.501C133.646 97.4855 133.667 97.4737 133.691 97.4678C134.4 97.2885 134.737 96.8888 134.7 96.2705C134.684 95.9963 134.586 95.7711 134.404 95.5947C134.209 95.4063 133.962 95.2851 133.665 95.2334C133.644 95.2293 133.624 95.2194 133.61 95.2051C133.597 95.1909 133.588 95.1733 133.588 95.1553L133.582 94.4453C133.582 94.4254 133.59 94.4056 133.604 94.3896C133.617 94.3736 133.637 94.3617 133.659 94.3564C133.875 94.3047 134.06 94.2309 134.213 94.1357C134.37 94.0378 134.498 93.899 134.595 93.7197C134.853 93.2421 134.751 92.7957 134.291 92.3809C134.169 92.271 133.966 92.1883 133.683 92.1338C133.66 92.1294 133.64 92.1186 133.625 92.1035C133.61 92.0885 133.602 92.0699 133.602 92.0508L133.587 91.3232C133.587 91.3047 133.594 91.2861 133.608 91.2715C133.622 91.257 133.642 91.2462 133.663 91.2422C134.049 91.172 134.338 90.9999 134.529 90.7256C134.713 90.4612 134.756 90.1717 134.66 89.8584C134.531 89.4411 134.206 89.1818 133.683 89.082C133.66 89.0778 133.638 89.0676 133.623 89.0527C133.608 89.038 133.6 89.0195 133.6 89.001V88.2197C133.6 88.2017 133.608 88.1836 133.623 88.1689C133.638 88.1541 133.659 88.1435 133.683 88.1387C133.936 88.0888 134.136 88.0029 134.282 87.8828C134.827 87.4356 134.898 86.9419 134.494 86.4014C134.324 86.1741 134.054 86.0276 133.683 85.9629C133.66 85.9586 133.638 85.9482 133.623 85.9336C133.608 85.919 133.6 85.9009 133.6 85.8828V85.1025C133.6 85.084 133.608 85.0654 133.623 85.0508C133.638 85.0362 133.658 85.0255 133.681 85.0215C133.982 84.9697 134.228 84.8463 134.418 84.6504C134.594 84.4693 134.685 84.2412 134.694 83.9668C134.712 83.3855 134.377 83.0199 133.689 82.8711C133.666 82.8658 133.645 82.8547 133.63 82.8398C133.615 82.8249 133.606 82.8065 133.605 82.7881L133.599 82.0508C133.598 82.0326 133.607 82.0139 133.622 81.999C133.637 81.9843 133.659 81.9736 133.683 81.9688C133.934 81.9207 134.121 81.8469 134.245 81.748C134.71 81.3775 134.842 80.9521 134.64 80.4707C134.553 80.2656 134.425 80.1059 134.254 79.9932C134.088 79.8843 133.886 79.8014 133.648 79.7451C133.63 79.7407 133.612 79.7307 133.601 79.7168C133.589 79.7029 133.582 79.6855 133.582 79.668L133.588 78.9854C133.588 78.9643 133.595 78.9435 133.607 78.9258C133.62 78.908 133.637 78.893 133.657 78.8838C133.73 78.8524 133.805 78.8269 133.882 78.8057C133.976 78.779 134.049 78.7502 134.101 78.7207C134.748 78.3529 134.878 77.8022 134.49 77.0693C134.487 77.0621 134.485 77.0539 134.485 77.0459C134.486 77.038 134.488 77.0302 134.492 77.0234C134.497 77.0167 134.503 77.0108 134.511 77.0068C134.518 77.0029 134.527 77.0002 134.535 77L180.398 77.0088Z" fill="black"/>
<path d="M148.577 87.0176H143.16V83.4814H159.176V87.0176H153.759V108.234H148.577V87.0176Z" fill="#FFC32A"/>
<path d="M160.518 108.376C159.575 108.376 158.775 108.329 158.115 108.234V104.698C158.618 104.792 159.183 104.74 159.811 104.74C160.847 104.74 161.617 104.651 162.119 104.274C162.622 103.873 162.873 103.272 162.873 102.47V83.4814H168.054V102.364C168.054 104.392 167.426 105.9 166.17 106.891C164.945 107.881 163.061 108.376 160.518 108.376Z" fill="#FFC32A"/>
<path d="M131.326 77C131.528 77 131.715 77.0264 131.887 77.0781C132.034 77.1234 132.21 77.1796 132.415 77.2471C132.449 77.2581 132.479 77.275 132.499 77.2959C132.52 77.3171 132.531 77.3419 132.53 77.3662L132.522 78.0166C132.522 78.0345 132.511 78.0521 132.491 78.0664C132.472 78.0807 132.445 78.0915 132.415 78.0957C131.752 78.1863 131.32 78.4242 131.119 78.8096C130.954 79.1311 130.987 79.4375 131.219 79.7295C131.461 80.0336 131.859 80.2262 132.411 80.3066C132.442 80.3109 132.47 80.3212 132.49 80.3359C132.511 80.3509 132.522 80.3699 132.522 80.3887L132.532 81.0664C132.533 81.0919 132.52 81.1175 132.496 81.1387C132.473 81.1597 132.439 81.1762 132.401 81.1846C131.908 81.2946 131.54 81.4653 131.299 81.6973C131.04 81.9468 130.973 82.2255 131.1 82.5332C131.261 82.9296 131.706 83.2139 132.433 83.3857C132.462 83.3926 132.489 83.4059 132.507 83.4229C132.525 83.4397 132.535 83.4594 132.534 83.4795L132.521 84.2188C132.521 84.2372 132.509 84.2558 132.49 84.2705C132.471 84.285 132.445 84.2956 132.415 84.2998C131.689 84.4024 131.249 84.6755 131.094 85.1191C130.985 85.4304 131.049 85.7128 131.287 85.9668C131.537 86.2339 131.913 86.4035 132.413 86.4756C132.445 86.4803 132.473 86.4913 132.493 86.5059C132.514 86.5206 132.525 86.5388 132.524 86.5566L132.505 87.2852C132.504 87.3039 132.492 87.3234 132.472 87.3389C132.451 87.3542 132.423 87.3651 132.392 87.3711C131.259 87.5809 130.842 88.0554 131.139 88.793C131.232 89.0238 131.384 89.197 131.594 89.3125C131.805 89.429 132.076 89.5204 132.405 89.5869C132.442 89.5945 132.474 89.6099 132.496 89.6299C132.519 89.6499 132.531 89.674 132.53 89.6982L132.522 90.3867C132.522 90.4055 132.511 90.4245 132.491 90.4395C132.471 90.4542 132.444 90.4645 132.413 90.4688C131.837 90.5473 131.432 90.7466 131.199 91.0664C130.975 91.3714 130.959 91.6842 131.15 92.0049C131.365 92.3653 131.786 92.59 132.413 92.6797C132.443 92.6839 132.471 92.6951 132.49 92.71C132.51 92.7248 132.521 92.7431 132.521 92.7617L132.536 93.5186C132.537 93.5467 132.522 93.5748 132.494 93.5967C132.467 93.6185 132.428 93.6327 132.386 93.6377C131.949 93.6913 131.606 93.8291 131.357 94.0508C131.124 94.2587 131.027 94.5087 131.064 94.7998C131.132 95.3229 131.582 95.6445 132.415 95.7646C132.445 95.769 132.472 95.7794 132.491 95.7939C132.51 95.8084 132.522 95.8264 132.522 95.8447L132.53 96.5811C132.531 96.6065 132.519 96.6325 132.496 96.6543C132.473 96.676 132.441 96.6929 132.403 96.7031C131.597 96.9138 131.151 97.2466 131.066 97.7012C131.014 97.9831 131.116 98.2352 131.373 98.457C131.631 98.6789 131.979 98.8209 132.415 98.8838C132.445 98.888 132.471 98.8992 132.49 98.9141C132.509 98.9289 132.52 98.947 132.521 98.9658L132.536 99.7266C132.537 99.7509 132.524 99.7755 132.501 99.7949C132.478 99.8143 132.445 99.8282 132.409 99.834C131.951 99.9098 131.599 100.056 131.355 100.274C131.114 100.491 131.026 100.749 131.09 101.05C131.19 101.522 131.624 101.811 132.39 101.916C132.421 101.921 132.449 101.932 132.47 101.946C132.49 101.961 132.502 101.978 132.503 101.996L132.526 102.841C132.527 102.863 132.515 102.884 132.494 102.902C132.473 102.92 132.443 102.934 132.409 102.94C131.964 103.027 131.618 103.173 131.373 103.375C131.117 103.588 131.018 103.839 131.076 104.129C131.166 104.572 131.596 104.872 132.364 105.027C132.417 105.038 132.462 105.061 132.495 105.092C132.528 105.123 132.546 105.16 132.546 105.199V105.926C132.546 105.959 132.529 105.992 132.499 106.018C132.469 106.043 132.428 106.062 132.382 106.068C131.928 106.133 131.582 106.274 131.344 106.49C131.109 106.702 131.022 106.952 131.082 107.242C131.177 107.705 131.622 108.004 132.415 108.136C132.452 108.142 132.486 108.157 132.51 108.178C132.534 108.199 132.546 108.225 132.546 108.252L132.538 108.982C132.538 109.008 132.524 109.033 132.502 109.054C132.479 109.074 132.449 109.09 132.413 109.097C131.602 109.265 131.153 109.579 131.068 110.04C131.015 110.332 131.107 110.589 131.346 110.809C131.584 111.029 131.932 111.175 132.39 111.246C132.431 111.253 132.467 111.269 132.493 111.291C132.519 111.313 132.533 111.34 132.532 111.367L132.521 112.12C132.52 112.138 132.51 112.157 132.49 112.172C132.471 112.187 132.443 112.197 132.413 112.202C131.796 112.295 131.378 112.52 131.16 112.877C130.96 113.204 130.976 113.516 131.209 113.812C131.442 114.104 131.842 114.307 132.407 114.419C132.437 114.425 132.463 114.436 132.484 114.451C132.505 114.467 132.52 114.486 132.526 114.507C132.603 114.756 132.512 114.874 132.253 114.859C132.129 114.852 132.063 114.849 132.057 114.849H12.6699C12.625 114.849 12.5816 114.836 12.5498 114.813C12.5179 114.791 12.5 114.76 12.5 114.728V100.715L12.502 100.716C15.084 100.716 17.1791 98.6395 17.2129 96.0654C17.2276 95.9086 17.2224 95.7513 17.1963 95.5928C16.9887 93.1814 14.9671 91.2883 12.502 91.2881H12.5V77.1211C12.5 77.0891 12.5179 77.0578 12.5498 77.0352C12.5817 77.0126 12.6249 77 12.6699 77H131.326Z" fill="#FFC42B"/>
<path d="M28.3429 108.818C26.4245 108.818 24.9736 108.284 23.9904 107.216C23.0072 106.124 22.5156 104.57 22.5156 102.553V101.129H26.2566V102.837C26.2566 104.451 26.9401 105.258 28.307 105.258C28.9784 105.258 29.482 105.068 29.8177 104.688C30.1774 104.285 30.3573 103.644 30.3573 102.766C30.3573 101.722 30.1175 100.808 29.6379 100.025C29.1583 99.2182 28.271 98.257 26.976 97.1416C25.3453 95.7176 24.2063 94.4361 23.5588 93.297C22.9113 92.1341 22.5876 90.8288 22.5876 89.3811C22.5876 87.4114 23.0912 85.8925 24.0983 84.8245C25.1055 83.7329 26.5684 83.187 28.4868 83.187C30.3813 83.187 31.8081 83.7329 32.7674 84.8245C33.7506 85.8925 34.2422 87.4351 34.2422 89.4523V90.4847H30.5012V89.2031C30.5012 88.3488 30.3333 87.7317 29.9976 87.352C29.6619 86.9486 29.1703 86.7469 28.5228 86.7469C27.2038 86.7469 26.5444 87.5419 26.5444 89.1319C26.5444 90.0338 26.7842 90.8763 27.2638 91.6594C27.7674 92.4426 28.6667 93.3919 29.9616 94.5073C31.6163 95.9312 32.7554 97.2246 33.3789 98.3875C34.0024 99.5504 34.3141 100.915 34.3141 102.481C34.3141 104.522 33.7985 106.089 32.7674 107.18C31.7602 108.272 30.2854 108.818 28.3429 108.818Z" fill="black"/>
<path d="M38.7411 83.543H42.6979V93.6885H46.9424V83.543H50.8992V108.462H46.9424V97.2484H42.6979V108.462H38.7411V83.543Z" fill="black"/>
<path d="M61.7237 108.818C59.7813 108.818 58.2945 108.272 57.2633 107.18C56.2321 106.089 55.7165 104.546 55.7165 102.553V89.4523C55.7165 87.4588 56.2321 85.9162 57.2633 84.8245C58.2945 83.7329 59.7813 83.187 61.7237 83.187C63.6661 83.187 65.1529 83.7329 66.1841 84.8245C67.2153 85.9162 67.7308 87.4588 67.7308 89.4523V102.553C67.7308 104.546 67.2153 106.089 66.1841 107.18C65.1529 108.272 63.6661 108.818 61.7237 108.818ZM61.7237 105.258C63.0906 105.258 63.774 104.439 63.774 102.802V89.2031C63.774 87.5656 63.0906 86.7469 61.7237 86.7469C60.3568 86.7469 59.6734 87.5656 59.6734 89.2031V102.802C59.6734 104.439 60.3568 105.258 61.7237 105.258Z" fill="black"/>
<path d="M71.6298 83.543H75.4427L77.2053 102.695H77.2772L79.1477 83.543H83.4642L85.3347 102.695H85.4066L87.1692 83.543H90.5865L88.0325 108.462H83.1045L81.306 91.6594H81.234L79.4355 108.462H74.1837L71.6298 83.543Z" fill="black"/>
<path d="M100.358 108.818C98.4392 108.818 96.9764 108.284 95.9692 107.216C94.962 106.124 94.4584 104.57 94.4584 102.553V89.4523C94.4584 87.4351 94.962 85.8925 95.9692 84.8245C96.9764 83.7329 98.4392 83.187 100.358 83.187C102.276 83.187 103.739 83.7329 104.746 84.8245C105.753 85.8925 106.257 87.4351 106.257 89.4523V91.5882H102.516V89.2031C102.516 87.5656 101.832 86.7469 100.466 86.7469C99.0987 86.7469 98.4152 87.5656 98.4152 89.2031V102.837C98.4152 104.451 99.0987 105.258 100.466 105.258C101.832 105.258 102.516 104.451 102.516 102.837V97.9603H100.537V94.4005H106.257V102.553C106.257 104.57 105.753 106.124 104.746 107.216C103.739 108.284 102.276 108.818 100.358 108.818Z" fill="black"/>
<path d="M116.675 108.818C114.733 108.818 113.246 108.272 112.215 107.18C111.183 106.089 110.668 104.546 110.668 102.553V89.4523C110.668 87.4588 111.183 85.9162 112.215 84.8245C113.246 83.7329 114.733 83.187 116.675 83.187C118.617 83.187 120.104 83.7329 121.135 84.8245C122.167 85.9162 122.682 87.4588 122.682 89.4523V102.553C122.682 104.546 122.167 106.089 121.135 107.18C120.104 108.272 118.617 108.818 116.675 108.818ZM116.675 105.258C118.042 105.258 118.725 104.439 118.725 102.802V89.2031C118.725 87.5656 118.042 86.7469 116.675 86.7469C115.308 86.7469 114.625 87.5656 114.625 89.2031V102.802C114.625 104.439 115.308 105.258 116.675 105.258Z" fill="black"/>
</svg>
